<svg width="128" height="128" viewBox="0 0 128 128" fill="none" xmlns="http://www.w3.org/2000/svg">
<circle cx="64" cy="64.0001" r="53.3333" fill="#FFB71B"/>
<path d="M76.1252 33.2612L63.9999 39.3594L51.8745 33.2612L63.9999 56.3065L76.1252 33.2612Z" fill="white"/>
<path d="M80.4518 50.9941L89.1026 47.3777V35.1814L74.0701 41.6341L65.7027 57.3758C68.9216 57.7469 71.8768 59.335 73.9625 61.8147C76.0483 64.2944 77.1067 67.478 76.9209 70.7129C76.735 73.9478 75.319 76.9893 72.963 79.2138C70.607 81.4383 67.4894 82.6776 64.2492 82.6776C61.0089 82.6776 57.8914 81.4383 55.5354 79.2138C53.1793 76.9893 51.7633 73.9478 51.5775 70.7129C51.3916 67.478 52.4499 64.2944 54.5356 61.8147C56.6213 59.335 59.5765 57.7469 62.7954 57.3758L54.4283 41.6341L39.4667 35.1814V47.3777L48.2593 50.9941C44.4459 54.3273 41.7403 58.7447 40.5036 63.6563C39.267 68.5678 39.5581 73.7396 41.3383 78.4813C43.1185 83.223 46.303 87.3088 50.4665 90.1929C54.63 93.0769 59.5743 94.6223 64.6391 94.6223C69.704 94.6223 74.6483 93.0769 78.8117 90.1929C82.9752 87.3088 86.1597 83.223 87.94 78.4813C89.7202 73.7396 90.0115 68.5678 88.7748 63.6563C87.5381 58.7447 84.8324 54.3273 81.019 50.9941H80.4518Z" fill="white"/>
</svg>
