<svg width="192" height="192" viewBox="0 0 192 192" fill="none" xmlns="http://www.w3.org/2000/svg">
<circle cx="96" cy="96" r="80" fill="#FFB71B"/>
<path d="M114.188 49.8918L95.9999 59.039L77.8119 49.8918L95.9999 84.4597L114.188 49.8918Z" fill="white"/>
<path d="M120.678 76.491L133.654 71.0664V52.772L111.105 62.451L98.5541 86.0636C103.383 86.6202 107.815 89.0024 110.944 92.722C114.072 96.4415 115.66 101.217 115.381 106.069C115.103 110.922 112.979 115.484 109.445 118.821C105.911 122.157 101.234 124.016 96.3738 124.016C91.5134 124.016 86.8371 122.157 83.3031 118.821C79.7691 115.484 77.6451 110.922 77.3663 106.069C77.0875 101.217 78.6749 96.4415 81.8035 92.722C84.9321 89.0024 89.3648 86.6202 94.1932 86.0636L81.6425 62.451L59.2001 52.772V71.0664L72.389 76.491C66.6689 81.4909 62.6105 88.1169 60.7555 95.4843C58.9005 102.852 59.3371 110.609 62.0075 117.722C64.6778 124.834 69.4546 130.963 75.6998 135.289C81.945 139.615 89.3615 141.933 96.9587 141.933C104.556 141.933 111.972 139.615 118.218 135.289C124.463 130.963 129.24 124.834 131.91 117.722C134.58 110.609 135.017 102.852 133.162 95.4843C131.307 88.1169 127.249 81.4909 121.529 76.491H120.678Z" fill="white"/>
</svg>
