<svg width="64" height="64" viewBox="0 0 64 64" fill="none" xmlns="http://www.w3.org/2000/svg">
<circle cx="32" cy="31.9999" r="26.6667" fill="#FFB71B"/>
<path d="M38.0626 16.6306L31.9999 19.6797L25.9373 16.6306L31.9999 28.1532L38.0626 16.6306Z" fill="white"/>
<path d="M40.226 25.4969L44.5514 23.6887V17.5906L37.0351 20.8169L32.8514 28.6878C34.4609 28.8733 35.9385 29.6674 36.9813 30.9072C38.0242 32.1471 38.5534 33.7389 38.4605 35.3563C38.3676 36.9738 37.6596 38.4945 36.4816 39.6068C35.3036 40.719 33.7448 41.3387 32.1246 41.3387C30.5045 41.3387 28.9457 40.719 27.7677 39.6068C26.5897 38.4945 25.8817 36.9738 25.7888 35.3563C25.6959 33.7389 26.225 32.1471 27.2679 30.9072C28.3107 29.6674 29.7883 28.8733 31.3978 28.6878L27.2142 20.8169L19.7334 17.5906V23.6887L24.1297 25.4969C22.223 27.1636 20.8702 29.3722 20.2519 31.828C19.6336 34.2838 19.7791 36.8697 20.6692 39.2405C21.5593 41.6114 23.1516 43.6543 25.2333 45.0963C27.3151 46.5384 29.7872 47.311 32.3196 47.311C34.852 47.311 37.3242 46.5384 39.4059 45.0963C41.4877 43.6543 43.0799 41.6114 43.97 39.2405C44.8602 36.8697 45.0058 34.2838 44.3875 31.828C43.7691 29.3722 42.4162 27.1636 40.5095 25.4969H40.226Z" fill="white"/>
</svg>
