<svg width="128" height="128" viewBox="0 0 128 128" fill="none" xmlns="http://www.w3.org/2000/svg">
<circle cx="66.6666" cy="64.0001" r="53.3333" fill="#696258"/>
<rect width="74.6667" height="74.6667" transform="translate(29.3333 26.6667)" fill="#696258"/>
<path d="M99.7062 64.6592L99.119 64.2535C97.9708 63.1242 96.6074 62.2813 95.125 61.7845C93.6426 61.2876 92.0774 61.1489 90.54 61.378C87.8637 61.6171 85.2849 62.5751 83.0375 64.1653V64.0241C83.0586 62.915 83.1348 61.8079 83.2659 60.7076C83.3637 59.5609 83.4779 58.4143 83.4779 57.3205C83.5125 56.2733 83.3516 55.2293 83.0049 54.2509C82.9634 54.1351 82.8888 54.0368 82.792 53.9701C82.6952 53.9035 82.5812 53.872 82.4667 53.8804C81.2428 54.0049 80.0608 54.4271 79.009 55.1153L78.748 55.7151C78.7436 57.394 78.5741 59.0675 78.2424 60.7076C78.2063 60.8512 78.1627 60.9926 78.1119 61.131C77.7045 65.3534 77.7045 69.6103 78.1119 73.8327C78.1119 74.1855 78.8133 74.7324 79.3026 74.9441C80.4232 74.9738 81.5363 74.739 82.5645 74.2561H82.9397C83.0144 74.2455 83.0865 74.2185 83.1513 74.1768C83.2161 74.135 83.2724 74.0795 83.3166 74.0134C83.3609 73.9474 83.3923 73.8722 83.4088 73.7926C83.4253 73.713 83.4266 73.6306 83.4126 73.5504V72.5096C83.859 70.6987 84.7468 69.0508 85.9834 67.7381C87.22 66.4254 88.7599 65.4961 90.4422 65.0473C91.283 64.8504 92.1569 64.8968 92.9759 65.1817C93.7948 65.4667 94.5298 65.9801 95.1068 66.6703C95.4802 68.4242 95.2052 70.2664 94.3402 71.804C93.122 73.9613 91.2302 75.5758 89.0069 76.3554C86.3945 77.3622 83.6196 77.7824 80.852 77.5903C80.7052 77.5021 77.8347 75.4028 77.8347 75.4028C75.1813 73.2108 72.3025 71.3579 69.2557 69.8811C68.5555 69.4585 67.8994 68.9558 67.2985 68.3815L67.0213 68.1169C65.3903 66.6704 62.2099 64.4123 59.6818 62.5952L58.3281 61.5896V61.2898C58.3281 61.2016 59.9591 60.1784 59.9591 60.1784C61.1994 59.5158 62.3605 58.6923 63.4168 57.7262L63.7267 57.5322L69.2394 54.145C74.5238 51.0049 80.5258 47.4414 83.6736 43.9131L83.8204 43.3663V42.8899C84.0073 42.2408 84.0073 41.5456 83.8204 40.8965C83.7998 40.7832 83.7484 40.679 83.6729 40.5973C83.5974 40.5156 83.5011 40.4601 83.3963 40.4378C80.9336 40.1732 77.7694 41.7609 74.8826 44.6893C74.3487 45.221 73.7506 45.672 73.1048 46.03L72.6645 46.277C69.4025 48.2352 62.3077 53.0513 58.5565 55.6622C58.911 50.3697 59.5482 45.1039 60.4647 39.8909L60.3668 39.2735L59.9754 38.4972L59.6818 37.9327C59.1171 37.6348 58.4663 37.5905 57.8714 37.8093L57.1212 38.1091L56.1263 38.4972C56.0315 38.5191 55.9431 38.5659 55.8691 38.6336C55.7952 38.7013 55.7378 38.7878 55.7022 38.8854C53.6705 44.85 52.4455 51.1007 52.0651 57.4439C49.3154 55.5777 46.4732 53.8758 43.5514 52.3456V52.3456H43.3557C42.6414 52.153 41.9666 51.818 41.3659 51.3577L40.0122 50.4051L37.9245 48.9585L37.37 48.8174C36.1537 49.2333 35.0728 50.0168 34.2548 51.0755C34.1925 51.1875 34.1588 51.3153 34.1569 51.4459C34.1722 51.6256 34.205 51.803 34.2548 51.9752L34.3527 52.4338L34.4505 52.7161C36.3003 54.394 38.3322 55.8217 40.5015 56.9676L43.3557 58.6083L47.743 61.1839L48.4933 61.8367L48.9989 62.1542H49.0967C47.9224 62.9833 41.1375 67.9052 41.1375 67.9052L36.8644 71.0807C36.0812 71.5449 35.2754 71.9631 34.4505 72.3332C33.6572 72.6336 32.9873 73.2271 32.5586 74.0091L32.4444 74.2737L32.5586 74.4501L32.8848 74.7147L33.3088 75.0147L33.7818 75.3499L34.2059 75.438C35.5635 75.2389 36.8747 74.7662 38.0713 74.0444C39.9469 73.1447 45.0356 69.8281 47.2211 68.4168L48.1508 67.7994C48.5932 67.7347 49.0048 67.5183 49.3251 67.1819C49.9404 66.69 50.5954 66.2589 51.2823 65.8941C51.2823 65.8941 51.6411 65.6824 51.951 65.506V65.7883C51.9129 71.308 52.3167 76.8209 53.1579 82.2652V82.2652V82.4416C53.6618 83.6508 54.0392 84.917 54.2833 86.2168L55.0988 89.2159L55.3434 89.4981C56.2097 90.0595 57.2042 90.3467 58.2139 90.3273H58.4586L58.6054 89.9568C58.686 89.5035 58.7243 89.0425 58.7195 88.5808C58.7195 88.0339 58.7195 87.4341 58.7195 86.6932V85.617C58.4097 80.5893 58.1161 73.2682 58.1161 68.505V68.1169L62.3566 71.0101C68.2282 75.1205 77.0355 81.3655 82.4667 83.0062C82.6016 83.0496 82.7445 83.0546 82.8817 83.0206C83.0189 82.9866 83.1456 82.9147 83.2495 82.8121L84.0814 82.2475H84.2281C84.4115 82.087 84.5573 81.8819 84.6537 81.6489C84.75 81.416 84.7942 81.1617 84.7827 80.9068C89.3005 80.6775 95.6124 78.7899 98.9885 74.2031C100.195 72.5408 100.86 70.4944 100.88 68.3815C100.953 67.0937 100.554 65.8267 99.7714 64.8533" fill="#FCAF17"/>
</svg>
