<svg width="192" height="192" viewBox="0 0 192 192" fill="none" xmlns="http://www.w3.org/2000/svg">
<circle cx="100" cy="96" r="80" fill="#696258"/>
<rect width="112" height="112" transform="translate(44 40)" fill="#696258"/>
<path d="M149.559 96.9885L148.679 96.3799C146.956 94.686 144.911 93.4217 142.688 92.6764C140.464 91.9311 138.116 91.7229 135.81 92.0666C131.796 92.4252 127.927 93.8623 124.556 96.2475V96.0359C124.588 94.3721 124.702 92.7115 124.899 91.061C125.046 89.341 125.217 87.621 125.217 85.9804C125.269 84.4096 125.028 82.8436 124.507 81.376C124.445 81.2023 124.333 81.0548 124.188 80.9548C124.043 80.8548 123.872 80.8077 123.7 80.8203C121.864 81.007 120.091 81.6403 118.514 82.6726L118.122 83.5723C118.116 86.0906 117.861 88.6009 117.364 91.061C117.31 91.2765 117.244 91.4885 117.168 91.6961C116.557 98.0297 116.557 104.415 117.168 110.749C117.168 111.278 118.22 112.098 118.954 112.416C120.635 112.46 122.305 112.108 123.847 111.384H124.41C124.522 111.368 124.63 111.327 124.727 111.265C124.824 111.202 124.909 111.119 124.975 111.02C125.041 110.921 125.089 110.808 125.113 110.689C125.138 110.569 125.14 110.446 125.119 110.325V108.764C125.789 106.048 127.12 103.576 128.975 101.607C130.83 99.6377 133.14 98.2437 135.663 97.5706C136.925 97.2753 138.235 97.3448 139.464 97.7723C140.692 98.1997 141.795 98.9699 142.66 100.005C143.22 102.636 142.808 105.399 141.51 107.706C139.683 110.942 136.845 113.363 133.511 114.533C129.592 116.043 125.43 116.673 121.278 116.385C121.058 116.253 116.752 113.104 116.752 113.104C112.772 109.816 108.454 107.036 103.884 104.821C102.833 104.187 101.849 103.433 100.948 102.572L100.532 102.175C98.0855 100.005 93.3149 96.618 89.5229 93.8925L87.4923 92.3841V91.9343C87.4923 91.802 89.9388 90.2672 89.9388 90.2672C91.7992 89.2733 93.5409 88.0381 95.1253 86.5889L95.5901 86.2979L103.859 81.2172C111.786 76.507 120.789 71.1617 125.511 65.8693L125.731 65.049V64.3345C126.011 63.3608 126.011 62.318 125.731 61.3444C125.7 61.1744 125.623 61.0181 125.509 60.8956C125.396 60.7731 125.252 60.6898 125.095 60.6563C121.4 60.2594 116.654 62.641 112.324 67.0337C111.523 67.8311 110.626 68.5076 109.657 69.0447L108.997 69.4152C104.104 72.3525 93.4617 79.5766 87.8348 83.493C88.3667 75.5542 89.3224 67.6554 90.6972 59.836L90.5504 58.9098L89.9632 57.7455L89.5229 56.8987C88.6757 56.4518 87.6996 56.3853 86.8073 56.7135L85.6819 57.1633L84.1895 57.7455C84.0473 57.7782 83.9148 57.8485 83.8038 57.9501C83.6928 58.0516 83.6068 58.1814 83.5534 58.3277C80.5059 67.2747 78.6684 76.6506 78.0978 86.1655C73.9732 83.3662 69.7099 80.8133 65.3272 78.5181V78.5181H65.0336C63.9622 78.2291 62.95 77.7266 62.0489 77.0362L60.0183 75.6073L56.8868 73.4374L56.0551 73.2257C54.2307 73.8496 52.6093 75.0249 51.3823 76.6128C51.2889 76.7808 51.2383 76.9725 51.2355 77.1685C51.2584 77.438 51.3076 77.7041 51.3823 77.9624L51.5291 78.6504L51.6759 79.0738C54.4505 81.5906 57.4984 83.7322 60.7523 85.4511L65.0336 87.912L71.6146 91.7755L72.74 92.7546L73.4984 93.2309H73.6452C71.8837 94.4746 61.7064 101.858 61.7064 101.858L55.2966 106.621C54.1219 107.317 52.9132 107.944 51.6759 108.499C50.4859 108.95 49.481 109.84 48.8379 111.013L48.6667 111.41L48.8379 111.675L49.3272 112.072L49.9633 112.522L50.6728 113.024L51.3089 113.157C53.3454 112.858 55.3121 112.149 57.107 111.066C59.9205 109.717 67.5535 104.742 70.8318 102.625L72.2263 101.699C72.8899 101.602 73.5072 101.277 73.9877 100.773C74.9107 100.035 75.8933 99.388 76.9235 98.8408C76.9235 98.8408 77.4617 98.5233 77.9265 98.2586V98.682C77.8694 106.962 78.4752 115.231 79.7369 123.397V123.397V123.662C80.4927 125.476 81.0589 127.375 81.425 129.325L82.6482 133.823L83.0152 134.247C84.3147 135.089 85.8065 135.52 87.321 135.491H87.688L87.9082 134.935C88.0291 134.255 88.0865 133.563 88.0794 132.871C88.0794 132.051 88.0794 131.151 88.0794 130.039V128.425C87.6146 120.884 87.1742 109.902 87.1742 102.757V102.175L93.5351 106.515C102.342 112.68 115.553 122.048 123.7 124.509C123.902 124.574 124.117 124.582 124.323 124.531C124.528 124.48 124.719 124.372 124.874 124.218L126.122 123.371H126.342C126.617 123.13 126.836 122.822 126.981 122.473C127.125 122.124 127.191 121.742 127.174 121.36C133.951 121.016 143.419 118.184 148.483 111.304C150.292 108.811 151.289 105.741 151.321 102.572C151.429 100.64 150.832 98.7397 149.657 97.2796" fill="#FCAF17"/>
</svg>
