<svg width="36" height="36" viewBox="0 0 36 36" fill="none" xmlns="http://www.w3.org/2000/svg">
<rect width="36" height="36" fill="white"/>
<path fill-rule="evenodd" clip-rule="evenodd" d="M18 32.85C26.2014 32.85 32.85 26.2014 32.85 18C32.85 9.79857 26.2014 3.15 18 3.15C9.79857 3.15 3.15 9.79857 3.15 18C3.15 26.2014 9.79857 32.85 18 32.85ZM18 33C26.2843 33 33 26.2843 33 18C33 9.71573 26.2843 3 18 3C9.71573 3 3 9.71573 3 18C3 26.2843 9.71573 33 18 33Z" fill="black"/>
<circle cx="18" cy="18" r="15" fill="#696258"/>
<rect width="21" height="21" transform="translate(7.5 7.5)" fill="#696258"/>
<path d="M27.2924 18.1853L27.1272 18.0712C26.8043 17.7536 26.4208 17.5166 26.0039 17.3768C25.587 17.2371 25.1468 17.198 24.7144 17.2625C23.9617 17.3297 23.2364 17.5992 22.6043 18.0464V18.0067C22.6103 17.6948 22.6317 17.3834 22.6685 17.0739C22.6961 16.7514 22.7282 16.4289 22.7282 16.1213C22.7379 15.8268 22.6927 15.5332 22.5951 15.258C22.5835 15.2254 22.5625 15.1978 22.5353 15.179C22.508 15.1603 22.476 15.1514 22.4438 15.1538C22.0996 15.1888 21.7671 15.3075 21.4713 15.5011L21.3979 15.6698C21.3967 16.142 21.349 16.6127 21.2557 17.0739C21.2455 17.1143 21.2333 17.1541 21.219 17.193C21.1044 18.3806 21.1044 19.5778 21.219 20.7654C21.219 20.8646 21.4162 21.0184 21.5539 21.078C21.869 21.0863 22.1821 21.0203 22.4713 20.8844H22.5768C22.5978 20.8815 22.6181 20.8739 22.6363 20.8621C22.6545 20.8504 22.6704 20.8348 22.6828 20.8162C22.6953 20.7976 22.7041 20.7765 22.7087 20.7541C22.7134 20.7317 22.7137 20.7085 22.7098 20.686V20.3933C22.8353 19.884 23.0851 19.4205 23.4329 19.0513C23.7806 18.6821 24.2137 18.4207 24.6869 18.2945C24.9234 18.2391 25.1691 18.2522 25.3995 18.3323C25.6298 18.4124 25.8365 18.5568 25.9988 18.751C26.1038 19.2442 26.0265 19.7624 25.7832 20.1948C25.4406 20.8015 24.9085 21.2556 24.2832 21.4749C23.5485 21.758 22.768 21.8762 21.9896 21.8222C21.9484 21.7974 21.141 21.207 21.141 21.207C20.3948 20.5905 19.5851 20.0693 18.7282 19.654C18.5313 19.5351 18.3467 19.3937 18.1777 19.2322L18.0997 19.1578C17.641 18.751 16.7465 18.1159 16.0355 17.6048L15.6548 17.322V17.2377C15.6548 17.2129 16.1135 16.9251 16.1135 16.9251C16.4623 16.7387 16.7889 16.5071 17.086 16.2354L17.1731 16.1809L18.7236 15.2282C20.2098 14.3451 21.8979 13.3428 22.7832 12.3505L22.8245 12.1967V12.0627C22.8771 11.8802 22.8771 11.6846 22.8245 11.5021C22.8187 11.4702 22.8043 11.4409 22.783 11.4179C22.7618 11.395 22.7347 11.3793 22.7052 11.3731C22.0126 11.2986 21.1227 11.7452 20.3107 12.5688C20.1606 12.7183 19.9924 12.8452 19.8107 12.9459L19.6869 13.0154C18.7695 13.5661 16.7741 14.9206 15.719 15.6549C15.8187 14.1664 15.9979 12.6854 16.2557 11.2193L16.2282 11.0456L16.1181 10.8273L16.0355 10.6685C15.8767 10.5847 15.6937 10.5722 15.5264 10.6338L15.3153 10.7181L15.0355 10.8273C15.0089 10.8334 14.984 10.8466 14.9632 10.8656C14.9424 10.8847 14.9263 10.909 14.9163 10.9364C14.3449 12.614 14.0003 14.372 13.8933 16.156C13.12 15.6312 12.3206 15.1525 11.4988 14.7221V14.7221H11.4438C11.2429 14.668 11.0531 14.5737 10.8842 14.4443L10.5034 14.1764L9.91628 13.7695L9.76032 13.7298C9.41825 13.8468 9.11424 14.0672 8.88417 14.3649C8.86666 14.3964 8.85717 14.4323 8.85665 14.4691C8.86095 14.5196 8.87017 14.5695 8.88417 14.618L8.9117 14.7469L8.93922 14.8263C9.45946 15.2982 10.031 15.6998 10.641 16.0221L11.4438 16.4835L12.6777 17.2079L12.8888 17.3915L13.031 17.4808H13.0585C12.7282 17.714 10.8199 19.0983 10.8199 19.0983L9.61812 19.9914C9.39786 20.1219 9.17123 20.2395 8.93922 20.3436C8.7161 20.4281 8.52768 20.5951 8.40711 20.815L8.375 20.8894L8.40711 20.939L8.49885 21.0135L8.61812 21.0978L8.75115 21.1921L8.87041 21.2169C9.25226 21.1609 9.62102 21.0279 9.95757 20.8249C10.4851 20.5719 11.9163 19.6391 12.531 19.2422L12.7924 19.0685C12.9168 19.0503 13.0326 18.9894 13.1227 18.8949C13.2958 18.7565 13.48 18.6353 13.6732 18.5327C13.6732 18.5327 13.7741 18.4731 13.8612 18.4235V18.5029C13.8505 20.0553 13.9641 21.6058 14.2007 23.137V23.137V23.1866C14.3424 23.5267 14.4485 23.8828 14.5172 24.2484L14.7465 25.0919L14.8153 25.1713C15.059 25.3292 15.3387 25.41 15.6227 25.4045H15.6915L15.7328 25.3003C15.7555 25.1728 15.7662 25.0431 15.7649 24.9133C15.7649 24.7595 15.7649 24.5908 15.7649 24.3824V24.0797C15.6777 22.6657 15.5952 20.6066 15.5952 19.267V19.1578L16.7878 19.9715C18.4392 21.1276 20.9163 22.884 22.4438 23.3454C22.4817 23.3576 22.5219 23.359 22.5605 23.3495C22.5991 23.3399 22.6347 23.3197 22.664 23.2908L22.8979 23.1321H22.9392C22.9908 23.0869 23.0318 23.0292 23.0589 22.9637C23.086 22.8982 23.0984 22.8267 23.0951 22.755C24.3658 22.6905 26.141 22.1596 27.0905 20.8696C27.4297 20.402 27.6168 19.8265 27.6227 19.2322C27.6429 18.87 27.5309 18.5137 27.3107 18.2399" fill="#FCAF17"/>
</svg>
