<svg width="48" height="48" viewBox="0 0 48 48" fill="none" xmlns="http://www.w3.org/2000/svg">
<rect width="48" height="48" fill="white"/>
<path fill-rule="evenodd" clip-rule="evenodd" d="M24 43.8C34.9352 43.8 43.8 34.9352 43.8 24C43.8 13.0648 34.9352 4.2 24 4.2C13.0648 4.2 4.2 13.0648 4.2 24C4.2 34.9352 13.0648 43.8 24 43.8ZM24 44C35.0457 44 44 35.0457 44 24C44 12.9543 35.0457 4 24 4C12.9543 4 4 12.9543 4 24C4 35.0457 12.9543 44 24 44Z" fill="black"/>
<circle cx="24" cy="24" r="20" fill="#696258"/>
<rect width="28" height="28" transform="translate(10 10)" fill="#696258"/>
<path d="M36.3899 24.2471L36.1697 24.095C35.7391 23.6715 35.2278 23.3554 34.6719 23.1691C34.116 22.9828 33.5291 22.9307 32.9526 23.0166C31.9489 23.1063 30.9819 23.4656 30.1391 24.0619V24.009C30.147 23.593 30.1756 23.1779 30.2247 22.7653C30.2614 22.3352 30.3042 21.9053 30.3042 21.4951C30.3172 21.1024 30.2569 20.7109 30.1269 20.344C30.1113 20.3006 30.0834 20.2637 30.047 20.2387C30.0107 20.2137 29.968 20.2019 29.925 20.2051C29.4661 20.2518 29.0228 20.4101 28.6284 20.6682L28.5306 20.8931C28.5289 21.5226 28.4653 22.1502 28.341 22.7653C28.3274 22.8191 28.3111 22.8721 28.292 22.924C28.1392 24.5074 28.1392 26.1038 28.292 27.6872C28.292 27.8195 28.555 28.0246 28.7385 28.1039C29.1587 28.1151 29.5762 28.027 29.9617 27.8459H30.1024C30.1305 27.842 30.1575 27.8318 30.1818 27.8162C30.2061 27.8005 30.2272 27.7797 30.2438 27.7549C30.2604 27.7302 30.2721 27.702 30.2783 27.6721C30.2845 27.6423 30.285 27.6114 30.2798 27.5813V27.191C30.4472 26.5119 30.7801 25.894 31.2438 25.4017C31.7075 24.9094 32.285 24.5609 32.9159 24.3927C33.2312 24.3188 33.5589 24.3362 33.866 24.4431C34.1731 24.5499 34.4487 24.7425 34.6651 25.0013C34.8051 25.659 34.702 26.3498 34.3776 26.9264C33.9208 27.7354 33.2114 28.3408 32.3776 28.6332C31.398 29.0107 30.3574 29.1683 29.3195 29.0963C29.2645 29.0632 28.188 28.276 28.188 28.276C27.193 27.4539 26.1135 26.7591 24.9709 26.2053C24.7084 26.0469 24.4623 25.8583 24.237 25.643L24.133 25.5438C23.5214 25.0013 22.3287 24.1545 21.3807 23.4731L20.8731 23.096V22.9836C20.8731 22.9505 21.4847 22.5668 21.4847 22.5668C21.9498 22.3183 22.3852 22.0095 22.7813 21.6472L22.8975 21.5745L24.9648 20.3043C26.9465 19.1267 29.1972 17.7904 30.3776 16.4673L30.4327 16.2623V16.0836C30.5028 15.8402 30.5028 15.5795 30.4327 15.3361C30.4249 15.2936 30.4057 15.2545 30.3774 15.2239C30.3491 15.1933 30.313 15.1725 30.2737 15.1641C29.3501 15.0648 28.1636 15.6602 27.081 16.7584C26.8808 16.9578 26.6565 17.1269 26.4144 17.2612L26.2492 17.3538C25.026 18.0881 22.3654 19.8941 20.9587 20.8732C21.0917 18.8886 21.3306 16.9139 21.6743 14.959L21.6376 14.7275L21.4908 14.4364L21.3807 14.2247C21.1689 14.113 20.9249 14.0963 20.7018 14.1784L20.4205 14.2908L20.0474 14.4364C20.0118 14.4446 19.9787 14.4621 19.951 14.4875C19.9232 14.5129 19.9017 14.5453 19.8884 14.5819C19.1265 16.8187 18.6671 19.1627 18.5245 21.5414C17.4933 20.8416 16.4275 20.2033 15.3318 19.6295V19.6295H15.2584C14.9906 19.5573 14.7375 19.4317 14.5122 19.2591L14.0046 18.9018L13.2217 18.3593L13.0138 18.3064C12.5577 18.4624 12.1523 18.7562 11.8456 19.1532C11.8222 19.1952 11.8096 19.2431 11.8089 19.2921C11.8146 19.3595 11.8269 19.426 11.8456 19.4906L11.8823 19.6626L11.919 19.7684C12.6126 20.3977 13.3746 20.9331 14.1881 21.3628L15.2584 21.978L16.9037 22.9439L17.185 23.1887L17.3746 23.3077H17.4113C16.971 23.6187 14.4266 25.4644 14.4266 25.4644L12.8242 26.6552C12.5305 26.8293 12.2283 26.9861 11.919 27.1248C11.6215 27.2375 11.3703 27.4601 11.2095 27.7533L11.1667 27.8526L11.2095 27.9187L11.3318 28.0179L11.4908 28.1304L11.6682 28.2561L11.8272 28.2892C12.3364 28.2145 12.828 28.0372 13.2768 27.7665C13.9801 27.4292 15.8884 26.1854 16.708 25.6562L17.0566 25.4247C17.2225 25.4004 17.3768 25.3193 17.4969 25.1931C17.7277 25.0086 17.9733 24.847 18.2309 24.7102C18.2309 24.7102 18.3654 24.6308 18.4817 24.5647V24.6705C18.4674 26.7404 18.6188 28.8077 18.9343 30.8494V30.8494V30.9155C19.1232 31.369 19.2647 31.8438 19.3563 32.3312L19.6621 33.4559L19.7538 33.5617C20.0787 33.7722 20.4516 33.8799 20.8303 33.8726H20.922L20.9771 33.7337C21.0073 33.5637 21.0216 33.3908 21.0199 33.2177C21.0199 33.0126 21.0199 32.7877 21.0199 32.5099V32.1063C20.9037 30.2209 20.7936 27.4755 20.7936 25.6893V25.5438L22.3838 26.6287C24.5856 28.1701 27.8884 30.512 29.925 31.1272C29.9756 31.1435 30.0292 31.1454 30.0807 31.1326C30.1321 31.1199 30.1797 31.0929 30.2186 31.0544L30.5306 30.8427H30.5856C30.6544 30.7825 30.709 30.7056 30.7452 30.6183C30.7813 30.5309 30.7979 30.4356 30.7935 30.34C32.4877 30.254 34.8547 29.5461 36.1207 27.8261C36.573 27.2027 36.8224 26.4353 36.8302 25.643C36.8573 25.16 36.7079 24.6849 36.4143 24.3199" fill="#FCAF17"/>
</svg>
