<svg width="64" height="64" viewBox="0 0 64 64" fill="none" xmlns="http://www.w3.org/2000/svg">
<circle cx="33.3334" cy="31.9999" r="26.6667" fill="#696258"/>
<rect width="37.3333" height="37.3333" transform="translate(14.6667 13.3333)" fill="#696258"/>
<path d="M49.8531 32.3295L49.5595 32.1266C48.9854 31.562 48.3037 31.1406 47.5625 30.8921C46.8213 30.6437 46.0387 30.5743 45.27 30.6889C43.9319 30.8084 42.6425 31.2874 41.5188 32.0825V32.012C41.5293 31.4574 41.5674 30.9038 41.633 30.3537C41.6819 29.7803 41.739 29.207 41.739 28.6601C41.7563 28.1365 41.6759 27.6145 41.5025 27.1253C41.4817 27.0674 41.4444 27.0183 41.396 26.9849C41.3476 26.9516 41.2906 26.9359 41.2334 26.9401C40.6214 27.0023 40.0304 27.2134 39.5045 27.5575L39.374 27.8574C39.3718 28.6969 39.2871 29.5336 39.1212 30.3537C39.1032 30.4255 39.0814 30.4962 39.056 30.5654C38.8523 32.6766 38.8523 34.805 39.056 36.9162C39.056 37.0926 39.4067 37.3661 39.6513 37.4719C40.2116 37.4868 40.7682 37.3694 41.2823 37.1279H41.4699C41.5073 37.1226 41.5433 37.1091 41.5757 37.0883C41.6081 37.0674 41.6362 37.0396 41.6583 37.0066C41.6805 36.9736 41.6962 36.936 41.7044 36.8962C41.7127 36.8564 41.7133 36.8152 41.7064 36.7751V36.2547C41.9295 35.3492 42.3734 34.5253 42.9917 33.8689C43.61 33.2126 44.38 32.7479 45.2211 32.5235C45.6415 32.4251 46.0785 32.4483 46.488 32.5908C46.8974 32.7332 47.2649 32.99 47.5534 33.335C47.7402 34.212 47.6026 35.1331 47.1701 35.9019C46.561 36.9805 45.6151 37.7878 44.5035 38.1776C43.1973 38.681 41.8099 38.8911 40.426 38.795C40.3526 38.7509 38.9174 37.7013 38.9174 37.7013C37.5907 36.6053 36.1513 35.6788 34.6279 34.9404C34.2778 34.7291 33.9497 34.4778 33.6493 34.1906L33.5107 34.0583C32.6952 33.3351 31.105 32.206 29.8409 31.2975L29.1641 30.7947V30.6448C29.1641 30.6007 29.9796 30.0891 29.9796 30.0891C30.5997 29.7578 31.1803 29.346 31.7084 28.863L31.8634 28.766L34.6197 27.0724C37.2619 25.5023 40.2629 23.7206 41.8368 21.9564L41.9102 21.683V21.4448C42.0037 21.1203 42.0037 20.7727 41.9102 20.4481C41.8999 20.3915 41.8742 20.3394 41.8365 20.2985C41.7987 20.2577 41.7506 20.2299 41.6982 20.2188C40.4668 20.0865 38.8848 20.8803 37.4413 22.3446C37.1744 22.6104 36.8754 22.8359 36.5524 23.0149L36.3323 23.1384C34.7013 24.1175 31.1539 26.5255 29.2783 27.831C29.4556 25.1847 29.7741 22.5518 30.2324 19.9453L30.1835 19.6366L29.9877 19.2485L29.8409 18.9662C29.5586 18.8173 29.2332 18.7951 28.9358 18.9045L28.5606 19.0544L28.0632 19.2485C28.0158 19.2594 27.9716 19.2828 27.9346 19.3167C27.8976 19.3505 27.8689 19.3938 27.8511 19.4426C26.8353 22.4249 26.2228 25.5502 26.0326 28.7218C24.6577 27.7887 23.2366 26.9378 21.7757 26.1727V26.1727H21.6779C21.3207 26.0764 20.9833 25.9089 20.683 25.6787L20.0061 25.2024L18.9623 24.4791L18.685 24.4086C18.0769 24.6165 17.5364 25.0083 17.1274 25.5376C17.0963 25.5936 17.0794 25.6575 17.0785 25.7228C17.0861 25.8127 17.1025 25.9014 17.1274 25.9875L17.1764 26.2168L17.2253 26.3579C18.1502 27.1969 19.1661 27.9107 20.2508 28.4837L21.6779 29.304L23.8715 30.5918L24.2467 30.9182L24.4995 31.077H24.5484C23.9612 31.4915 20.5688 33.9525 20.5688 33.9525L18.4322 35.5402C18.0406 35.7724 17.6377 35.9814 17.2253 36.1665C16.8286 36.3167 16.4937 36.6134 16.2793 37.0044L16.2222 37.1367L16.2793 37.2249L16.4424 37.3573L16.6544 37.5072L16.8909 37.6748L17.103 37.7189C17.7818 37.6193 18.4374 37.383 19.0357 37.0221C19.9735 36.5722 22.5178 34.9139 23.6106 34.2083L24.0754 33.8996C24.2966 33.8672 24.5024 33.759 24.6626 33.5909C24.9702 33.3449 25.2977 33.1293 25.6412 32.9469C25.6412 32.9469 25.8206 32.8411 25.9755 32.7529V32.894C25.9565 35.6539 26.1584 38.4103 26.579 41.1325V41.1325V41.2207C26.8309 41.8253 27.0196 42.4584 27.1417 43.1083L27.5494 44.6078L27.6717 44.7489C28.1049 45.0296 28.6022 45.1732 29.107 45.1635H29.2293L29.3027 44.9783C29.343 44.7516 29.3622 44.5211 29.3598 44.2903C29.3598 44.0168 29.3598 43.7169 29.3598 43.3465V42.8084C29.2049 40.2945 29.0581 36.634 29.0581 34.2524V34.0583L31.1784 35.5049C34.1141 37.5601 38.5178 40.6826 41.2334 41.503C41.3008 41.5247 41.3723 41.5272 41.4409 41.5102C41.5095 41.4932 41.5728 41.4573 41.6248 41.4059L42.0407 41.1237H42.1141C42.2058 41.0434 42.2787 40.9408 42.3269 40.8243C42.375 40.7079 42.3971 40.5808 42.3914 40.4533C44.6503 40.3386 47.8062 39.3948 49.4943 37.1014C50.0973 36.2703 50.4298 35.2471 50.4403 34.1906C50.4763 33.5467 50.2772 32.9132 49.8857 32.4265" fill="#FCAF17"/>
</svg>
