<svg width="62" height="64" viewBox="0 0 62 64" fill="none" xmlns="http://www.w3.org/2000/svg">
<ellipse cx="31" cy="31.9999" rx="25.8333" ry="26.6667" fill="#DBEAFE"/>
<path d="M33.2839 17.0898C40.4578 17.1695 46.6289 22.7433 47.4774 30.2681C48.4031 38.4696 42.7334 45.8749 34.7496 46.7906C34.2096 46.8702 33.631 46.9101 33.0911 46.9101H32.9368C27.9228 46.8304 23.4488 43.8046 21.0961 39.1863L14.4236 43.1676C14.4236 36.041 17.3934 24.3359 25.6472 19.2398C25.6858 19.2398 25.7244 19.1999 25.7629 19.1999C25.8015 19.1601 25.8401 19.1601 25.8786 19.1203C27.5371 18.125 29.427 17.4482 31.4712 17.2093C32.0111 17.1297 32.5897 17.0898 33.1296 17.0898H33.2839Z" fill="#0064FF"/>
</svg>
