<svg width="192" height="192" viewBox="0 0 192 192" fill="none" xmlns="http://www.w3.org/2000/svg">
<circle cx="96" cy="96" r="80" fill="#DBEAFE"/>
<path d="M103.073 51.2698C125.289 51.5087 144.399 68.2303 147.027 90.8045C149.893 115.409 132.336 137.625 107.612 140.372C105.939 140.611 104.148 140.73 102.476 140.73H101.998C86.4707 140.492 72.6156 131.414 65.3298 117.559L44.6666 129.503C44.6666 108.123 53.8635 73.0079 79.4237 57.7195C79.5431 57.7195 79.6626 57.6001 79.782 57.6001C79.9015 57.4806 80.0209 57.4807 80.1403 57.3612C85.2763 54.3752 91.1288 52.3447 97.4592 51.6281C99.1313 51.3892 100.923 51.2698 102.595 51.2698H103.073Z" fill="#0064FF"/>
</svg>
