<svg width="128" height="128" viewBox="0 0 128 128" fill="none" xmlns="http://www.w3.org/2000/svg">
<ellipse cx="64" cy="64.0001" rx="53.3333" ry="53.3333" fill="#DBEAFE"/>
<path d="M68.7152 34.1799C83.5258 34.3392 96.266 45.4869 98.0178 60.5364C99.9289 76.9395 88.2237 91.7501 71.741 93.5815C70.6262 93.7407 69.4318 93.8204 68.3171 93.8204H67.9985C57.6471 93.6611 48.4104 87.6095 43.5531 78.3728L29.7777 86.3354C29.7777 72.0823 35.909 48.672 52.9491 38.4798C53.0287 38.4798 53.1083 38.4001 53.188 38.4001C53.2676 38.3205 53.3472 38.3205 53.4268 38.2409C56.8508 36.2502 60.7525 34.8966 64.9727 34.4188C66.0875 34.2595 67.2819 34.1799 68.3967 34.1799H68.7152Z" fill="#0064FF"/>
</svg>
