<svg width="192" height="192" viewBox="0 0 192 192" fill="none" xmlns="http://www.w3.org/2000/svg">
<circle cx="96" cy="96" r="80" fill="#DBEAFE"/>
<path d="M95.8135 144.362C105.381 144.362 114.734 141.525 122.689 136.21C130.644 130.894 136.844 123.339 140.505 114.5C144.167 105.661 145.125 95.9345 143.258 86.5509C141.392 77.1672 136.784 68.5478 130.019 61.7826C123.254 55.0173 114.634 50.4102 105.251 48.5436C95.8672 46.6771 86.1407 47.6351 77.3015 51.2964C68.4623 54.9577 60.9074 61.158 55.592 69.113C50.2766 77.0681 47.4395 86.4207 47.4395 95.9882C47.4395 108.818 52.536 121.122 61.6079 130.194C70.6798 139.266 82.9839 144.362 95.8135 144.362V144.362Z" fill="#0083CA"/>
<mask id="mask0_245_765" style="mask-type:alpha" maskUnits="userSpaceOnUse" x="47" y="47" width="98" height="98">
<path d="M95.8136 144.362C105.381 144.362 114.734 141.525 122.689 136.21C130.644 130.894 136.844 123.339 140.505 114.5C144.167 105.661 145.125 95.9346 143.258 86.551C141.392 77.1673 136.784 68.5479 130.019 61.7827C123.254 55.0175 114.635 50.4103 105.251 48.5438C95.8673 46.6772 86.1409 47.6352 77.3017 51.2965C68.4625 54.9579 60.9075 61.1581 55.5921 69.1131C50.2767 77.0682 47.4396 86.4208 47.4396 95.9883C47.4396 108.818 52.5361 121.122 61.608 130.194C70.6799 139.266 82.984 144.362 95.8136 144.362V144.362Z" fill="#0083CA"/>
</mask>
<g mask="url(#mask0_245_765)">
<path d="M95.9766 119.36C117.228 119.36 135.449 125.278 143.256 133.667C145.955 127.495 147.344 120.83 147.333 114.093C147.333 100.479 141.925 87.4222 132.298 77.7953C122.671 68.1685 109.614 62.7601 95.9999 62.7601C82.3855 62.7601 69.3286 68.1685 59.7018 77.7953C50.0749 87.4222 44.6666 100.479 44.6666 114.093C44.6569 120.827 46.0372 127.491 48.7211 133.667C56.5038 125.278 74.7023 119.36 95.9766 119.36Z" fill="#0083CA"/>
<path d="M95.9766 119.408C117.181 119.408 135.356 125.28 143.139 133.622C145.82 127.495 147.201 120.877 147.193 114.189C147.193 86.6696 124.241 64.3002 95.93 64.3002C67.6186 64.3002 44.6666 86.6696 44.6666 114.189C44.6573 120.878 46.038 127.495 48.7211 133.622C56.597 125.28 74.7023 119.408 95.9766 119.408Z" fill="#0085CB"/>
<path d="M95.9766 119.453C117.111 119.453 135.24 125.301 142.999 133.55C145.677 127.479 147.058 120.915 147.054 114.28C147.054 86.9704 124.148 64.7174 95.9766 64.7174C67.8051 64.7174 44.8996 86.9937 44.8996 114.28C44.8898 120.916 46.271 127.481 48.9541 133.55C56.6902 125.301 74.8188 119.453 95.9766 119.453Z" fill="#0086CC"/>
<path d="M95.9533 119.523C117.041 119.523 135.147 125.302 142.883 133.504C145.548 127.519 146.929 121.041 146.937 114.49C146.937 87.4132 124.102 65.2534 95.9767 65.2534C67.8517 65.2534 45.0627 87.4132 45.0627 114.49C45.0476 121.071 46.4213 127.582 49.0939 133.597C56.7835 125.302 74.8654 119.523 95.9533 119.523Z" fill="#0088CC"/>
<path d="M95.9533 119.569C116.925 119.569 135.03 125.301 142.743 133.434C145.41 127.475 146.784 121.018 146.774 114.49C146.774 87.6229 124.008 65.5563 95.9533 65.5563C67.8982 65.5563 45.1559 87.5996 45.1559 114.49C45.1466 121.016 46.5122 127.471 49.1638 133.434C56.8766 125.301 74.912 119.569 95.9533 119.569Z" fill="#0089CD"/>
<path d="M95.9533 119.616C116.925 119.616 134.914 125.301 142.556 133.364C145.205 127.457 146.571 121.056 146.564 114.583C146.564 87.9258 123.845 65.999 95.8834 65.999C67.9215 65.999 45.2258 87.9491 45.2258 114.583C45.2203 121.053 46.5779 127.453 49.2104 133.364C56.9698 125.301 74.9819 119.616 95.9533 119.616Z" fill="#008BCE"/>
<path d="M95.9534 119.686C116.925 119.686 134.82 125.301 142.556 133.317C145.202 127.459 146.568 121.104 146.564 114.676C146.564 88.252 123.915 66.4418 96.0233 66.4418C68.1313 66.4418 45.4822 88.252 45.4822 114.676C45.4795 121.101 46.8375 127.454 49.4668 133.317C57.0631 125.301 75.0286 119.686 95.9534 119.686Z" fill="#008DCF"/>
<path d="M95.93 119.732C116.901 119.732 134.704 125.325 142.37 133.247C144.997 127.441 146.356 121.142 146.355 114.769C146.355 88.5783 123.775 66.8612 95.93 66.8612C68.0847 66.8612 45.5288 88.5783 45.5288 114.769C45.5258 121.142 46.8843 127.442 49.5134 133.247C57.1563 125.325 75.0751 119.732 95.93 119.732Z" fill="#008ED0"/>
<path d="M95.9301 119.779C116.738 119.779 134.611 125.325 142.23 133.177C144.87 127.433 146.23 121.184 146.215 114.862C146.215 88.8812 123.682 67.304 95.9301 67.304C68.1779 67.304 45.6687 88.9045 45.6687 114.862C45.6556 121.181 47.0067 127.429 49.6299 133.177C57.2495 125.325 75.1218 119.779 95.9301 119.779Z" fill="#0090D0"/>
<path d="M95.93 119.849C116.668 119.849 134.494 125.325 142.114 133.131C144.732 127.43 146.083 121.229 146.075 114.956C146.075 89.3239 123.612 67.7234 95.93 67.7234C68.2477 67.7234 45.785 89.2074 45.785 114.956C45.7855 121.228 47.1365 127.427 49.7463 133.131C57.3659 125.325 75.1683 119.849 95.93 119.849Z" fill="#0092D1"/>
<path d="M95.93 119.896C116.622 119.896 134.378 125.325 141.997 133.061C144.602 127.413 145.953 121.268 145.958 115.049C145.958 89.4172 123.542 68.1428 95.93 68.1428C68.3176 68.1428 45.9016 89.5337 45.9016 115.049C45.902 121.269 47.2536 127.415 49.8628 133.061C57.4591 125.325 75.2149 119.896 95.93 119.896Z" fill="#0093D2"/>
<path d="M95.9067 119.942C116.552 119.942 134.284 125.348 141.857 132.991C144.463 127.401 145.815 121.309 145.819 115.142C145.819 89.8366 123.449 68.5389 95.9067 68.5389C68.3643 68.5389 46.0414 89.8133 46.0414 115.142C46.0343 121.308 47.3785 127.401 49.9794 132.991C57.5524 125.348 75.2615 119.942 95.9067 119.942Z" fill="#0095D3"/>
<path d="M95.9068 120.012C116.482 120.012 134.168 125.348 141.741 132.944C144.337 127.402 145.681 121.356 145.679 115.235C145.679 90.1627 123.379 69.0049 95.9068 69.0049C68.4343 69.0049 46.158 90.1627 46.158 115.235C46.1508 121.356 47.4955 127.403 50.096 132.944C57.6457 125.348 75.3082 120.012 95.9068 120.012Z" fill="#0097D4"/>
<path d="M95.9068 120.059C116.435 120.059 134.075 125.348 141.601 132.874C144.194 127.397 145.539 121.412 145.539 115.352C145.539 90.4889 123.309 69.4476 95.9068 69.4476C68.5041 69.4476 46.2744 90.419 46.2744 115.352C46.2724 121.412 47.6175 127.398 50.2124 132.874C57.7388 125.348 75.3548 120.059 95.9068 120.059Z" fill="#0098D5"/>
<path d="M95.8834 120.105C116.365 120.105 133.958 125.348 141.485 132.805C144.058 127.379 145.395 121.45 145.399 115.445C145.399 90.7919 123.216 69.8671 95.8834 69.8671C68.5507 69.8671 46.4142 90.8385 46.4142 115.445C46.4127 121.45 47.7501 127.381 50.3289 132.805C57.832 125.348 75.4013 120.105 95.8834 120.105Z" fill="#009AD5"/>
<path d="M95.8834 120.152C116.296 120.152 133.842 125.371 141.345 132.758C143.915 127.381 145.253 121.498 145.259 115.538C145.259 91.1181 123.146 70.3098 95.8834 70.3098C68.6206 70.3098 46.5308 91.1181 46.5308 115.538C46.5321 121.499 47.8697 127.383 50.4454 132.758C57.9252 125.371 75.448 120.152 95.8834 120.152Z" fill="#009CD6"/>
<path d="M95.8835 120.222C116.249 120.222 133.748 125.371 141.228 132.688C143.78 127.364 145.11 121.536 145.12 115.631C145.12 91.4443 123.053 70.7292 95.8835 70.7292C68.7138 70.7292 46.7405 91.4443 46.7405 115.631C46.7447 121.539 48.0829 127.37 50.6551 132.688C58.0184 125.371 75.4946 120.222 95.8835 120.222Z" fill="#009ED7"/>
<path d="M95.8835 120.268C116.179 120.268 133.632 125.371 141.088 132.618C143.65 127.355 144.981 121.578 144.98 115.725C144.98 91.7473 122.983 71.1487 95.8835 71.1487C68.7838 71.1487 46.7405 91.7473 46.7405 115.725C46.7338 121.579 48.0648 127.357 50.6319 132.618C58.1117 125.371 75.5412 120.268 95.8835 120.268Z" fill="#00A0D8"/>
<path d="M95.8601 120.315C116.109 120.315 133.539 125.371 140.972 132.572C143.515 127.352 144.838 121.623 144.84 115.818C144.84 92.0735 122.913 71.5448 95.9068 71.5448C68.9003 71.5448 46.9735 92.0269 46.9735 115.818C46.9734 121.624 48.2963 127.353 50.8416 132.572C58.2049 125.371 75.5878 120.315 95.8601 120.315Z" fill="#00A1D9"/>
<path d="M95.86 120.385C116.062 120.385 133.422 125.395 140.832 132.502C143.374 127.34 144.698 121.664 144.7 115.911C144.7 92.3997 122.82 72.0109 95.7669 72.0109C68.7138 72.0109 46.8336 92.3997 46.8336 115.911C46.8444 121.663 48.1673 127.338 50.7017 132.502C58.3912 125.395 75.6576 120.385 95.86 120.385Z" fill="#00A3DA"/>
<path d="M95.8602 120.431C115.993 120.431 133.306 125.395 140.716 132.432C143.232 127.361 144.555 121.782 144.584 116.121C144.584 92.8191 122.75 72.5701 95.8602 72.5701C68.9702 72.5701 47.1599 92.8191 47.1599 116.121C47.1806 121.78 48.4957 127.359 51.0047 132.432C58.3912 125.395 75.7043 120.431 95.8602 120.431Z" fill="#00A5DB"/>
<path d="M95.8601 120.478C115.923 120.478 133.143 125.395 140.576 132.385C143.117 127.323 144.442 121.738 144.444 116.074C144.444 93.0055 122.68 72.8497 95.8601 72.8497C69.04 72.8497 47.2764 93.0055 47.2764 116.074C47.2761 121.736 48.5923 127.32 51.1211 132.385C58.3912 125.395 75.7508 120.478 95.8601 120.478Z" fill="#00A7DC"/>
<path d="M95.8369 120.548C115.876 120.548 133.119 125.395 140.459 132.315C142.978 127.321 144.295 121.807 144.304 116.214C144.304 93.355 122.587 73.3157 95.8369 73.3157C69.0867 73.3157 47.4163 93.355 47.4163 116.214C47.4174 121.806 48.726 127.319 51.2377 132.315C58.5777 125.395 75.7976 120.548 95.8369 120.548Z" fill="#00A9DD"/>
<path d="M95.8369 120.595C115.806 120.595 133.003 125.418 140.32 132.245C142.838 127.309 144.156 121.848 144.164 116.307C144.164 93.6579 122.517 73.7351 95.8369 73.7351C69.1566 73.7351 47.5327 93.6579 47.5327 116.307C47.542 121.846 48.8509 127.305 51.3542 132.245C58.6709 125.418 75.8441 120.595 95.8369 120.595Z" fill="#00ABDE"/>
<path d="M95.8369 120.641C115.76 120.641 132.886 125.418 140.11 132.292C142.607 127.399 143.917 121.987 143.931 116.494C143.931 94.0774 122.354 74.2711 95.7436 74.2711C69.1333 74.2711 47.556 94.0774 47.556 116.494C47.5925 121.957 48.9093 127.336 51.4008 132.199C58.7874 125.418 75.8907 120.641 95.8369 120.641Z" fill="#00ADDE"/>
<path d="M95.8135 120.688C115.69 120.688 132.77 125.348 140.086 132.129C142.593 127.298 143.904 121.936 143.908 116.493C143.908 94.3104 122.377 74.5507 95.8368 74.5507C69.2963 74.5507 47.8123 94.2638 47.8123 116.493C47.8171 121.933 49.1192 127.293 51.6104 132.129C58.8805 125.418 75.9372 120.688 95.8135 120.688Z" fill="#00AFDF"/>
<path d="M95.8135 120.758C115.62 120.758 132.677 125.418 139.947 132.059C142.435 127.281 143.737 121.974 143.745 116.587C143.745 94.6133 122.284 75.0167 95.8135 75.0167C69.3429 75.0167 47.9055 94.6133 47.9055 116.587C47.9102 121.974 49.213 127.282 51.7037 132.059C58.9738 125.418 75.9839 120.758 95.8135 120.758Z" fill="#00B1E0"/>
<path d="M95.8135 120.804C115.573 120.804 132.56 125.465 139.807 132.012C142.294 127.284 143.597 122.023 143.605 116.68C143.605 94.9396 122.214 75.4595 95.8135 75.4595C69.4128 75.4595 48.022 94.9396 48.022 116.68C48.027 122.023 49.3305 127.285 51.8201 132.012C59.0669 125.441 76.0305 120.804 95.8135 120.804Z" fill="#00B3E1"/>
<path d="M95.8136 120.851C115.503 120.851 132.467 125.511 139.69 131.942C142.16 127.267 143.455 122.061 143.465 116.773C143.465 95.2425 122.121 75.8789 95.8136 75.8789C69.5061 75.8789 48.1619 95.2658 48.1619 116.773C48.1722 122.061 49.4677 127.267 51.9368 131.942C59.1603 125.441 76.0772 120.851 95.8136 120.851Z" fill="#0DB5E2"/>
<path d="M95.7902 120.921C115.433 120.921 132.35 125.441 139.55 131.873C142.018 127.255 143.314 122.102 143.325 116.866C143.325 95.5688 122.051 76.3217 95.7902 76.3217C69.5293 76.3217 48.2783 95.5688 48.2783 116.866C48.2898 122.102 49.586 127.255 52.0532 131.873C59.2533 125.441 76.1236 120.921 95.7902 120.921Z" fill="#19B7E3"/>
<path d="M95.7903 120.967C115.387 120.967 132.234 125.441 139.434 131.826C141.895 127.264 143.192 122.166 143.209 116.983C143.209 96.0115 121.981 76.7411 95.7903 76.7411C69.5993 76.7411 48.3949 95.895 48.3949 116.983C48.4092 122.166 49.706 127.266 52.1697 131.826C59.3466 125.441 76.1703 120.967 95.7903 120.967Z" fill="#21B9E4"/>
<path d="M95.7902 121.014C115.317 121.014 132.141 125.465 139.318 131.756C141.759 127.247 143.048 122.204 143.069 117.076C143.069 96.1047 121.888 77.1838 95.7902 77.1838C69.6925 77.1838 48.5347 96.1979 48.5347 117.076C48.5451 122.202 49.8261 127.246 52.2629 131.756C59.4398 125.465 76.2169 121.014 95.7902 121.014Z" fill="#28BBE5"/>
<path d="M95.7901 121.131C115.294 121.131 132.094 125.558 139.248 131.803C141.691 127.328 142.981 122.314 142.999 117.216C142.999 96.5008 121.865 77.6033 95.7901 77.6033C69.7157 77.6033 48.6045 96.5474 48.6045 117.216C48.6118 122.313 49.8935 127.327 52.3328 131.803C59.4863 125.558 76.2634 121.131 95.7901 121.131Z" fill="#37BDE6"/>
<path d="M95.7903 121.27C115.27 121.27 132.048 125.651 139.178 131.873C141.625 127.424 142.915 122.433 142.929 117.356C142.929 96.7804 121.818 77.9528 95.7903 77.9528C69.7624 77.9528 48.6512 96.7804 48.6512 117.356C48.676 122.428 49.9569 127.416 52.3795 131.873C59.5331 125.651 76.2868 121.27 95.7903 121.27Z" fill="#43BFE6"/>
<path d="M95.7902 121.48C115.247 121.48 131.978 125.837 139.131 132.012C141.561 127.6 142.843 122.649 142.859 117.612C142.859 97.1532 121.888 78.442 95.7902 78.442C69.6924 78.442 48.7211 97.0833 48.7211 117.612C48.7347 122.649 50.0169 127.601 52.4493 132.012C59.5796 125.744 76.3101 121.48 95.7902 121.48Z" fill="#4DC0E7"/>
<path d="M95.7902 121.48C115.224 121.48 131.931 125.814 139.061 131.942C141.501 127.567 142.791 122.645 142.813 117.635C142.813 97.3164 121.841 78.7217 95.7902 78.7217C69.7391 78.7217 48.791 97.363 48.791 117.635C48.8082 122.639 50.0821 127.559 52.496 131.942C59.6262 125.837 76.3334 121.48 95.7902 121.48Z" fill="#56C2E8"/>
<path d="M95.7901 121.643C115.2 121.643 131.884 125.931 139.015 132.012C141.433 127.672 142.715 122.79 142.743 117.822C142.743 97.6425 121.771 79.1411 95.7901 79.1411C69.8089 79.1411 48.8608 97.6425 48.8608 117.822C48.8673 122.79 50.1425 127.675 52.5658 132.012C59.6728 125.931 76.3566 121.643 95.7901 121.643Z" fill="#5EC4E8"/>
<path d="M95.7902 121.76C115.154 121.76 131.838 126.024 138.945 132.082C141.372 127.771 142.656 122.909 142.673 117.962C142.673 97.9222 121.702 79.5372 95.7902 79.5372C69.8789 79.5372 48.9075 97.9222 48.9075 117.962C48.9278 122.906 50.2026 127.765 52.6124 132.082C59.7427 126.14 76.38 121.76 95.7902 121.76Z" fill="#65C6E9"/>
<path d="M95.7902 121.876C115.13 121.876 131.791 126.117 138.898 132.129C141.299 127.858 142.574 123.047 142.603 118.148C142.603 98.2484 121.632 79.98 95.7902 79.98C69.9487 79.98 49.0706 98.1785 49.0706 118.101C49.0962 123.001 50.3714 127.813 52.7755 132.082C59.7893 126.14 76.4266 121.876 95.7902 121.876Z" fill="#6DC7EA"/>
<path d="M95.7902 121.993C115.107 121.993 131.744 126.21 138.828 132.176C141.248 127.913 142.524 123.096 142.533 118.195C142.533 98.4116 121.562 80.2596 95.7902 80.2596C70.0186 80.2596 49.0706 98.4815 49.0706 118.264C49.0714 123.164 50.3396 127.981 52.7522 132.245C59.8358 126.14 76.4499 121.993 95.7902 121.993Z" fill="#74C9EA"/>
<path d="M95.7902 122.132C115.084 122.132 131.698 126.303 138.782 132.245C141.176 128.023 142.452 123.258 142.487 118.404C142.487 98.761 121.515 80.7256 95.8834 80.7256C70.2517 80.7256 49.2803 98.7843 49.2803 118.404C49.2936 123.258 50.5619 128.026 52.962 132.245C59.8825 126.303 76.4732 122.132 95.7902 122.132Z" fill="#7ACBEB"/>
<path d="M95.7902 122.249C115.061 122.249 131.651 126.397 138.712 132.292C141.115 128.116 142.392 123.386 142.417 118.567C142.417 99.0639 121.445 81.1217 95.8136 81.1217C70.1818 81.1217 49.2104 99.0639 49.2104 118.567C49.2354 123.383 50.5036 128.11 52.8921 132.292C59.9292 126.397 76.4965 122.249 95.7902 122.249Z" fill="#81CDEC"/>
<path d="M95.7902 122.366C115.037 122.366 131.605 126.49 138.665 132.339C141.051 128.19 142.32 123.493 142.347 118.707C142.347 99.3436 121.492 81.4247 95.7436 81.4247C69.9954 81.4247 49.1405 99.2737 49.1405 118.707C49.1537 123.495 50.4232 128.195 52.8221 132.339C59.9757 126.49 76.5198 122.366 95.7902 122.366Z" fill="#87CFEC"/>
<path d="M95.7902 122.505C115.014 122.505 131.535 126.583 138.595 132.385C140.982 128.271 142.252 123.604 142.277 118.847C142.277 99.6232 121.445 81.8907 95.7902 81.8907C70.1351 81.8907 49.3036 99.6232 49.3036 118.847C49.3206 123.602 50.5818 128.269 52.962 132.385C60.0223 126.583 76.5431 122.505 95.7902 122.505Z" fill="#8ED1ED"/>
<path d="M95.7902 122.622C114.991 122.622 131.488 126.676 138.549 132.455C140.929 128.372 142.199 123.736 142.23 119.01C142.23 99.9029 121.422 82.2869 95.7902 82.2869C70.1585 82.2869 49.3735 99.9262 49.3735 119.01C49.3938 123.735 50.6554 128.371 53.0319 132.455C60.069 126.676 76.5897 122.622 95.7902 122.622Z" fill="#94D3EE"/>
<path d="M95.7902 122.738C114.967 122.738 131.442 126.77 138.479 132.502C140.903 128.465 142.213 123.858 142.277 119.15C142.277 100.182 121.492 82.683 95.9067 82.683C70.3216 82.683 49.5366 100.206 49.5366 119.15C49.5567 123.845 50.8188 128.452 53.1949 132.502C60.1155 126.77 76.613 122.738 95.7902 122.738Z" fill="#9AD5EF"/>
<path d="M95.7902 122.855C114.944 122.855 131.395 126.863 138.409 132.548C140.788 128.541 142.058 123.973 142.09 119.313C142.09 100.485 121.352 83.0791 95.7902 83.0791C70.2284 83.0791 49.49 100.485 49.49 119.313C49.5106 123.972 50.7735 128.54 53.1484 132.548C60.1621 126.863 76.6363 122.855 95.7902 122.855Z" fill="#A0D7F0"/>
<path d="M95.7902 122.995C114.921 122.995 131.348 126.956 138.362 132.595C140.725 128.616 141.988 124.08 142.021 119.453C142.021 100.812 121.305 83.4752 95.7902 83.4752C70.275 83.4752 49.5599 100.765 49.5599 119.453C49.5732 124.08 50.8285 128.619 53.195 132.595C60.2087 126.956 76.6596 122.995 95.7902 122.995Z" fill="#A6D9F0"/>
<path d="M95.7901 123.111C114.897 123.111 131.302 127.049 138.292 132.665C140.672 128.718 141.944 124.202 141.974 119.593C141.974 100.951 121.282 83.8713 95.7901 83.8713C70.2982 83.8713 49.6298 101.068 49.6298 119.593C49.6452 124.197 50.9009 128.713 53.2648 132.665C60.2553 127.049 76.6829 123.111 95.7901 123.111Z" fill="#ACDCF1"/>
<path d="M95.7902 123.228C114.851 123.228 131.255 127.142 138.246 132.711C140.604 128.799 141.867 124.324 141.904 119.756C141.904 101.324 121.235 84.2675 95.7902 84.2675C70.3449 84.2675 49.6997 101.347 49.6997 119.756C49.7198 124.32 50.9674 128.795 53.3115 132.711C60.3253 127.142 76.7062 123.228 95.7902 123.228Z" fill="#B2DEF2"/>
<path d="M95.7902 123.344C114.828 123.344 131.209 127.236 138.176 132.665C140.534 128.786 141.798 124.341 141.834 119.802C141.834 101.534 121.189 84.5704 95.7902 84.5704C70.3915 84.5704 49.7463 101.534 49.7463 119.802C49.76 124.341 51.0172 128.79 53.3814 132.665C60.3718 127.236 76.7528 123.344 95.7902 123.344Z" fill="#B8E0F3"/>
<path d="M95.7902 123.484C114.804 123.484 131.162 127.329 138.129 132.805C140.473 128.955 141.729 124.542 141.764 120.035C141.764 101.883 121.166 85.083 95.7902 85.083C70.4148 85.083 49.8163 101.93 49.8163 120.035C49.8363 124.544 51.0937 128.961 53.4513 132.805C60.4185 127.329 76.7761 123.484 95.7902 123.484Z" fill="#BDE2F4"/>
<path d="M95.7903 123.6C114.781 123.6 131.115 127.422 138.059 132.921C140.405 129.107 141.662 124.723 141.694 120.245C141.694 102.233 121.119 85.4791 95.7903 85.4791C70.4615 85.4791 49.8862 102.256 49.8862 120.245C49.9067 124.721 51.156 129.106 53.4979 132.921C60.4651 127.422 76.7995 123.6 95.7903 123.6Z" fill="#C3E5F5"/>
<path d="M95.7902 123.81C114.758 123.81 131.045 127.608 138.013 133.014C140.347 129.229 141.604 124.879 141.648 120.431C141.648 102.559 121.096 85.9219 95.7902 85.9219C70.4847 85.9219 49.9561 102.582 49.9561 120.431C49.9686 124.876 51.2106 129.231 53.5445 133.014C60.5117 127.515 76.8227 123.81 95.7902 123.81Z" fill="#C9E7F5"/>
<path d="M95.7902 123.81C114.734 123.81 130.999 127.562 137.943 132.921C140.276 129.178 141.533 124.865 141.578 120.455C141.578 102.699 121.049 86.1782 95.7902 86.1782C70.5313 86.1782 50.0027 102.839 50.0027 120.501C50.0243 124.912 51.275 129.229 53.6145 132.968C60.5583 127.608 76.8461 123.81 95.7902 123.81Z" fill="#CEE9F6"/>
<path d="M95.7901 123.973C114.711 123.973 130.952 127.702 137.896 133.038C140.219 129.317 141.468 125.027 141.508 120.641C141.508 103.048 121.026 86.6208 95.7901 86.6208C70.5546 86.6208 50.0725 103.048 50.0725 120.641C50.0925 125.066 51.3605 129.395 53.7309 133.131C60.7213 127.702 76.8693 123.973 95.7901 123.973Z" fill="#D4ECF7"/>
<path d="M95.7902 124.09C114.688 124.09 130.906 127.795 137.733 133.084C140.06 129.408 141.311 125.155 141.345 120.804C141.345 103.328 120.886 87.0171 95.6971 87.0171C70.5081 87.0171 50.0493 103.328 50.0493 120.804C50.0854 125.179 51.362 129.453 53.7309 133.131C60.7214 127.795 77.0325 124.09 95.7902 124.09Z" fill="#DAEEF8"/>
<path d="M95.7902 124.206C114.664 124.206 130.859 127.888 137.733 133.131C140.06 129.488 141.32 125.266 141.368 120.944C141.368 103.608 120.909 87.4132 95.7669 87.4132C70.6245 87.4132 50.1891 103.724 50.1891 120.944C50.2059 125.258 51.433 129.48 53.7309 133.131C60.7214 127.888 77.0324 124.206 95.7902 124.206Z" fill="#DFF1F9"/>
<path d="M95.7902 124.346C114.641 124.346 130.742 127.981 137.733 133.177C140.055 129.568 141.307 125.375 141.345 121.084C141.345 103.887 120.933 87.8093 95.8135 87.8093C70.6944 87.8093 50.2822 103.911 50.2822 121.084C50.3 125.375 51.5451 129.571 53.8707 133.177C60.7213 127.981 77.0324 124.346 95.7902 124.346Z" fill="#E5F3FA"/>
<path d="M95.7903 124.463C114.618 124.463 130.743 128.074 137.733 133.247C140.047 129.669 141.3 125.508 141.345 121.247C141.345 104.19 120.956 88.2054 95.8835 88.2054C70.811 88.2054 50.4221 104.19 50.4221 121.247C50.4506 125.504 51.6869 129.665 53.9873 133.247C60.7214 128.074 77.0325 124.463 95.7903 124.463Z" fill="#EBF6FB"/>
<path d="M95.7902 124.579C114.595 124.579 130.743 128.168 137.593 133.294C139.892 129.744 141.136 125.615 141.182 121.387C141.182 104.47 120.839 88.6016 95.7902 88.6016C70.741 88.6016 50.3988 104.47 50.3988 121.48C50.4243 125.708 51.6616 129.841 53.9639 133.387C60.8379 128.168 77.0324 124.579 95.7902 124.579Z" fill="#F1F8FD"/>
<path d="M95.7902 124.696C114.571 124.696 130.743 128.261 137.523 133.341C139.841 129.817 141.088 125.697 141.112 121.48C141.112 104.68 120.793 88.8579 95.7902 88.8579C70.7877 88.8579 50.4688 104.633 50.4688 121.48C50.49 125.669 51.7198 129.763 54.0106 133.271C60.9078 128.261 77.0325 124.696 95.7902 124.696Z" fill="#F7FBFE"/>
<path d="M95.7902 124.836C114.431 124.836 130.603 128.354 137.477 133.41C139.757 129.947 141.002 125.906 141.065 121.76C141.065 105.099 120.769 89.4637 95.7902 89.4637C70.8109 89.4637 50.5153 105.122 50.5153 121.76C50.5584 125.905 51.7962 129.951 54.0804 133.41C60.9544 128.471 77.0324 124.836 95.7902 124.836Z" fill="white"/>
<path d="M95.7902 108.198C80.7087 108.059 65.7211 110.583 51.5172 115.655C55.3211 124.198 61.5197 131.455 69.3627 136.548C77.2058 141.642 86.357 144.352 95.7087 144.352C105.06 144.352 114.212 141.642 122.055 136.548C129.898 131.455 136.096 124.198 139.9 115.655C125.749 110.596 110.817 108.072 95.7902 108.198V108.198Z" fill="#0083CA"/>
</g>
</svg>
