<svg width="128" height="128" viewBox="0 0 128 128" fill="none" xmlns="http://www.w3.org/2000/svg">
<circle cx="64" cy="64" r="53.3333" fill="#DBEAFE"/>
<path d="M63.8756 96.2414C70.2539 96.2414 76.489 94.35 81.7924 90.8064C87.0957 87.2628 91.2292 82.2261 93.6701 76.3333C96.111 70.4405 96.7496 63.9563 95.5053 57.7005C94.261 51.4447 91.1895 45.6985 86.6793 41.1883C82.1692 36.6782 76.4229 33.6067 70.1671 32.3624C63.9114 31.118 57.4271 31.7567 51.5343 34.1975C45.6415 36.6384 40.6049 40.7719 37.0613 46.0753C33.5177 51.3786 31.6262 57.6137 31.6262 63.992C31.6262 72.5451 35.0239 80.7478 41.0719 86.7958C47.1198 92.8437 55.3225 96.2414 63.8756 96.2414V96.2414Z" fill="#0083CA"/>
<mask id="mask0_245_693" style="mask-type:alpha" maskUnits="userSpaceOnUse" x="31" y="31" width="66" height="66">
<path d="M63.8757 96.2415C70.254 96.2415 76.4891 94.3501 81.7925 90.8065C87.0959 87.2629 91.2294 82.2263 93.6702 76.3335C96.1111 70.4407 96.7498 63.9564 95.5054 57.7006C94.2611 51.4449 91.1896 45.6986 86.6794 41.1884C82.1693 36.6783 76.423 33.6068 70.1673 32.3625C63.9115 31.1181 57.4272 31.7568 51.5344 34.1977C45.6416 36.6385 40.605 40.772 37.0614 46.0754C33.5178 51.3788 31.6263 57.6138 31.6263 63.9922C31.6263 72.5452 35.0241 80.748 41.072 86.7959C47.1199 92.8438 55.3227 96.2415 63.8757 96.2415V96.2415Z" fill="#0083CA"/>
</mask>
<g mask="url(#mask0_245_693)">
<path d="M63.9843 79.5731C78.1517 79.5731 90.2996 83.5188 95.5036 89.1112C97.3033 84.9966 98.2291 80.5532 98.2221 76.0623C98.2221 66.986 94.6165 58.2815 88.1986 51.8635C81.7807 45.4456 73.0762 41.8401 63.9999 41.8401C54.9236 41.8401 46.219 45.4456 39.8011 51.8635C33.3832 58.2815 29.7776 66.986 29.7776 76.0623C29.7712 80.5516 30.6914 84.9939 32.4806 89.1112C37.6691 83.5188 49.8015 79.5731 63.9843 79.5731Z" fill="#0083CA"/>
<path d="M63.9843 79.6055C78.1206 79.6055 90.2374 83.5201 95.4259 89.0814C97.2133 84.9963 98.1337 80.5848 98.1289 76.1258C98.1289 57.7797 82.8275 42.8667 63.9532 42.8667C45.079 42.8667 29.7776 57.7797 29.7776 76.1258C29.7715 80.5849 30.6919 84.9968 32.4806 89.0814C37.7312 83.5201 49.8015 79.6055 63.9843 79.6055Z" fill="#0085CB"/>
<path d="M63.9844 79.6353C78.0741 79.6353 90.1598 83.5344 95.3327 89.0335C97.118 84.986 98.0386 80.6104 98.0357 76.1866C98.0357 57.9803 82.7654 43.145 63.9844 43.145C45.2033 43.145 29.933 57.9959 29.933 76.1866C29.9265 80.6108 30.8473 84.9871 32.636 89.0335C37.7934 83.5344 49.8792 79.6353 63.9844 79.6353Z" fill="#0086CC"/>
<path d="M63.9688 79.6818C78.0274 79.6818 90.0976 83.5343 95.255 89.0024C97.0318 85.0123 97.9526 80.6941 97.958 76.3263C97.958 58.2754 82.7343 43.5022 63.9843 43.5022C45.2343 43.5022 30.0417 58.2754 30.0417 76.3263C30.0316 80.7142 30.9474 85.0547 32.7292 89.0645C37.8555 83.5343 49.9102 79.6818 63.9688 79.6818Z" fill="#0088CC"/>
<path d="M63.9688 79.7129C77.9498 79.7129 90.02 83.5344 95.1619 88.9559C96.9403 84.9833 97.8562 80.6789 97.8493 76.3264C97.8493 58.4153 82.6722 43.7042 63.9688 43.7042C45.2654 43.7042 30.1039 58.3997 30.1039 76.3264C30.0977 80.6772 31.0081 84.9804 32.7758 88.9559C37.9177 83.5344 49.9413 79.7129 63.9688 79.7129Z" fill="#0089CD"/>
<path d="M63.9688 79.744C77.9498 79.744 89.9423 83.5344 95.0376 88.9093C96.8033 84.9715 97.7139 80.7041 97.7095 76.3885C97.7095 58.6172 82.5635 43.9994 63.9222 43.9994C45.281 43.9994 30.1505 58.6328 30.1505 76.3885C30.1468 80.7023 31.0519 84.9686 32.8069 88.9093C37.9798 83.5344 49.9879 79.744 63.9688 79.744Z" fill="#008BCE"/>
<path d="M63.9687 79.7906C77.9497 79.7906 89.8801 83.5344 95.0375 88.8782C96.8011 84.9726 97.712 80.736 97.7094 76.4507C97.7094 58.8347 82.61 44.2946 64.0153 44.2946C45.4207 44.2946 30.3213 58.8347 30.3213 76.4507C30.3195 80.7343 31.2248 84.9697 32.9777 88.8782C38.0419 83.5344 50.0189 79.7906 63.9687 79.7906Z" fill="#008DCF"/>
<path d="M63.9532 79.8216C77.9342 79.8216 89.8025 83.5498 94.9133 88.8315C96.6646 84.9609 97.5702 80.7612 97.5696 76.5128C97.5696 59.0521 82.5168 44.5741 63.9532 44.5741C45.3897 44.5741 30.3524 59.0521 30.3524 76.5128C30.3504 80.7613 31.2561 84.9613 33.0088 88.8315C38.1041 83.5498 50.05 79.8216 63.9532 79.8216Z" fill="#008ED0"/>
<path d="M63.9532 79.8527C77.8254 79.8527 89.7403 83.5499 94.8201 88.7849C96.5798 84.9555 97.4862 80.7893 97.4764 76.5749C97.4764 59.2541 82.4547 44.8693 63.9532 44.8693C45.4518 44.8693 30.4456 59.2696 30.4456 76.5749C30.4369 80.7876 31.3377 84.9524 33.0864 88.7849C38.1662 83.5499 50.081 79.8527 63.9532 79.8527Z" fill="#0090D0"/>
<path d="M63.9533 79.8993C77.7789 79.8993 89.6627 83.5499 94.7424 88.7539C96.4879 84.9532 97.3888 80.8194 97.3833 76.6371C97.3833 59.5493 82.4081 45.1489 63.9533 45.1489C45.4984 45.1489 30.5233 59.4716 30.5233 76.6371C30.5236 80.8188 31.4243 84.9514 33.1642 88.7539C38.2439 83.5499 50.1121 79.8993 63.9533 79.8993Z" fill="#0092D1"/>
<path d="M63.9532 79.9303C77.7477 79.9303 89.5849 83.5498 94.6647 88.7072C96.4009 84.9419 97.3018 80.8455 97.3055 76.6992C97.3055 59.6114 82.3614 45.4285 63.9532 45.4285C45.545 45.4285 30.601 59.689 30.601 76.6992C30.6012 80.8459 31.5023 84.943 33.2418 88.7072C38.306 83.5498 50.1431 79.9303 63.9532 79.9303Z" fill="#0093D2"/>
<path d="M63.9378 79.9614C77.7012 79.9614 89.5229 83.5654 94.5715 88.6607C96.3089 84.9343 97.2102 80.8729 97.2124 76.7614C97.2124 59.891 82.2994 45.6926 63.9378 45.6926C45.5761 45.6926 30.6942 59.8755 30.6942 76.7614C30.6895 80.872 31.5856 84.9337 33.3195 88.6607C38.3682 83.5654 50.1743 79.9614 63.9378 79.9614Z" fill="#0095D3"/>
<path d="M63.9378 80.008C77.6546 80.008 89.4452 83.5654 94.4938 88.6296C96.2246 84.9345 97.1209 80.9038 97.1191 76.8235C97.1191 60.1085 82.2528 46.0033 63.9378 46.0033C45.6227 46.0033 30.7719 60.1085 30.7719 76.8235C30.7671 80.9042 31.6636 84.9355 33.3972 88.6296C38.4303 83.5654 50.2054 80.008 63.9378 80.008Z" fill="#0097D4"/>
<path d="M63.9377 80.0391C77.6235 80.0391 89.383 83.5654 94.4006 88.583C96.1291 84.9312 97.0257 80.9414 97.0259 76.9012C97.0259 60.326 82.2062 46.2985 63.9377 46.2985C45.6693 46.2985 30.8495 60.2794 30.8495 76.9012C30.8481 80.9415 31.7449 84.9317 33.4748 88.583C38.4924 83.5654 50.2364 80.0391 63.9377 80.0391Z" fill="#0098D5"/>
<path d="M63.9222 80.0702C77.577 80.0702 89.3054 83.5655 94.323 88.5365C96.0388 84.9194 96.9301 80.9667 96.9328 76.9634C96.9328 60.528 82.1441 46.5781 63.9222 46.5781C45.7004 46.5781 30.9427 60.5591 30.9427 76.9634C30.9418 80.9671 31.8334 84.9206 33.5526 88.5365C38.5546 83.5655 50.2675 80.0702 63.9222 80.0702Z" fill="#009AD5"/>
<path d="M63.9222 80.1012C77.5303 80.1012 89.2277 83.5809 94.2297 88.5053C95.9434 84.9206 96.835 80.9986 96.8395 77.0254C96.8395 60.7454 82.0974 46.8732 63.9222 46.8732C45.747 46.8732 31.0204 60.7454 31.0204 77.0254C31.0213 80.999 31.913 84.9218 33.6301 88.5053C38.6167 83.5809 50.2985 80.1012 63.9222 80.1012Z" fill="#009CD6"/>
<path d="M63.9221 80.1478C77.4992 80.1478 89.1655 83.5809 94.152 88.4587C95.8534 84.9091 96.7398 81.0239 96.7463 77.0876C96.7463 60.9629 82.0352 47.1528 63.9221 47.1528C45.8091 47.1528 31.1602 60.9629 31.1602 77.0876C31.163 81.0261 32.0551 84.9131 33.7699 88.4587C38.6788 83.5809 50.3296 80.1478 63.9221 80.1478Z" fill="#009ED7"/>
<path d="M63.9222 80.1789C77.4526 80.1789 89.0878 83.581 94.0588 88.4122C95.7666 84.9034 96.6538 81.0521 96.6531 77.1498C96.6531 61.1649 81.9886 47.4325 63.9222 47.4325C45.8557 47.4325 31.1602 61.1649 31.1602 77.1498C31.1557 81.0525 32.043 84.9047 33.7544 88.4122C38.741 83.581 50.3607 80.1789 63.9222 80.1789Z" fill="#00A0D8"/>
<path d="M63.9066 80.21C77.406 80.21 89.0257 83.5809 93.9812 88.381C95.6765 84.9016 96.5583 81.0823 96.5599 77.2118C96.5599 61.3823 81.9421 47.6965 63.9377 47.6965C45.9334 47.6965 31.3156 61.3512 31.3156 77.2118C31.3155 81.0825 32.1974 84.9022 33.8943 88.381C38.8031 83.5809 50.3917 80.21 63.9066 80.21Z" fill="#00A1D9"/>
<path d="M63.9067 80.2566C77.375 80.2566 88.9481 83.5964 93.8881 88.3344C95.5828 84.8936 96.4651 81.1096 96.4668 77.274C96.4668 61.5998 81.88 48.0072 63.8446 48.0072C45.8092 48.0072 31.2224 61.5998 31.2224 77.274C31.2296 81.1089 32.1116 84.8917 33.8011 88.3344C38.9275 83.5964 50.4384 80.2566 63.9067 80.2566Z" fill="#00A3DA"/>
<path d="M63.9066 80.2876C77.3283 80.2876 88.8704 83.5964 93.8103 88.2878C95.4878 84.9072 96.3699 81.1876 96.389 77.4137C96.389 61.8794 81.8333 48.38 63.9066 48.38C45.98 48.38 31.4398 61.8794 31.4398 77.4137C31.4536 81.1865 32.3303 84.9061 34.003 88.2878C38.9274 83.5964 50.4694 80.2876 63.9066 80.2876Z" fill="#00A5DB"/>
<path d="M63.9067 80.3188C77.2818 80.3188 88.7617 83.5965 93.7172 88.2568C95.4117 84.8824 96.2947 81.1588 96.2959 77.3828C96.2959 62.0037 81.7868 48.5665 63.9067 48.5665C46.0266 48.5665 31.5176 62.0037 31.5176 77.3828C31.5174 81.1572 32.3949 84.8799 34.0807 88.2568C38.9275 83.5965 50.5005 80.3188 63.9067 80.3188Z" fill="#00A7DC"/>
<path d="M63.8911 80.3654C77.2507 80.3654 88.7461 83.5965 93.6395 88.2102C95.3188 84.8808 96.1965 81.2049 96.2026 77.476C96.2026 62.2368 81.7246 48.8772 63.8911 48.8772C46.0577 48.8772 31.6107 62.2368 31.6107 77.476C31.6114 81.2038 32.4839 84.8797 34.1583 88.2102C39.0517 83.5965 50.5316 80.3654 63.8911 80.3654Z" fill="#00A9DD"/>
<path d="M63.8911 80.3964C77.2041 80.3964 88.6684 83.612 93.5462 88.1635C95.2254 84.873 96.1036 81.2323 96.1094 77.538C96.1094 62.4386 81.678 49.1567 63.8911 49.1567C46.1043 49.1567 31.6884 62.4386 31.6884 77.538C31.6945 81.2304 32.5672 84.8698 34.236 88.1635C39.1138 83.612 50.5626 80.3964 63.8911 80.3964Z" fill="#00ABDE"/>
<path d="M63.8912 80.4274C77.1731 80.4274 88.5908 83.612 93.4065 88.1946C95.0716 84.9328 95.9444 81.3245 95.9541 77.6623C95.9541 62.7182 81.5693 49.514 63.829 49.514C46.0888 49.514 31.704 62.7182 31.704 77.6623C31.7283 81.3047 32.6061 84.8907 34.2671 88.1325C39.1915 83.612 50.5938 80.4274 63.8912 80.4274Z" fill="#00ADDE"/>
<path d="M63.8756 80.4585C77.1264 80.4585 88.5131 83.5654 93.3909 88.0859C95.0622 84.8654 95.9359 81.2907 95.9385 77.6623C95.9385 62.8736 81.5848 49.7004 63.8911 49.7004C46.1975 49.7004 31.8748 62.8425 31.8748 77.6623C31.878 81.2887 32.746 84.8621 34.4069 88.0859C39.2536 83.612 50.6248 80.4585 63.8756 80.4585Z" fill="#00AFDF"/>
<path d="M63.8756 80.5051C77.0798 80.5051 88.4509 83.6119 93.2977 88.0392C94.9564 84.8537 95.8248 81.316 95.8298 77.7244C95.8298 63.0755 81.5226 50.0111 63.8756 50.0111C46.2285 50.0111 31.9369 63.0755 31.9369 77.7244C31.94 81.3162 32.8085 84.8543 34.469 88.0392C39.3157 83.6119 50.6558 80.5051 63.8756 80.5051Z" fill="#00B1E0"/>
<path d="M63.8757 80.5362C77.0488 80.5362 88.3734 83.643 93.2046 88.0082C94.8626 84.8558 95.7314 81.3484 95.7367 77.7866C95.7367 63.293 81.4761 50.3063 63.8757 50.3063C46.2752 50.3063 32.0146 63.293 32.0146 77.7866C32.018 81.3486 32.887 84.8565 34.5468 88.0082C39.3779 83.6275 50.687 80.5362 63.8757 80.5362Z" fill="#00B3E1"/>
<path d="M63.8756 80.5673C77.0021 80.5673 88.3112 83.6742 93.1268 87.9617C94.7729 84.8445 95.6365 81.3739 95.6434 77.8488C95.6434 63.495 81.4139 50.5859 63.8756 50.5859C46.3373 50.5859 32.1078 63.5105 32.1078 77.8488C32.1147 81.3739 32.9784 84.8445 34.6244 87.9617C39.4401 83.6276 50.718 80.5673 63.8756 80.5673Z" fill="#0DB5E2"/>
<path d="M63.8601 80.6139C76.9556 80.6139 88.2335 83.6276 93.0337 87.9151C94.6785 84.8365 95.5426 81.4013 95.5503 77.9109C95.5503 63.7125 81.3673 50.8811 63.8601 50.8811C46.3529 50.8811 32.1855 63.7125 32.1855 77.9109C32.1932 81.4013 33.0573 84.8365 34.7021 87.9151C39.5022 83.6276 50.7491 80.6139 63.8601 80.6139Z" fill="#19B7E3"/>
<path d="M63.8601 80.645C76.9245 80.645 88.1559 83.6276 92.956 87.884C94.5967 84.843 95.4611 81.444 95.4725 77.9886C95.4725 64.0077 81.3207 51.1608 63.8601 51.1608C46.3995 51.1608 32.2632 63.93 32.2632 77.9886C32.2727 81.4442 33.1373 84.8437 34.7797 87.884C39.5643 83.6276 50.7801 80.645 63.8601 80.645Z" fill="#21B9E4"/>
<path d="M63.86 80.676C76.8778 80.676 88.0937 83.643 92.8783 87.8373C94.5058 84.8311 95.365 81.4691 95.3793 78.0507C95.3793 64.0697 81.2585 51.4558 63.86 51.4558C46.4615 51.4558 32.3563 64.1319 32.3563 78.0507C32.3633 81.4681 33.2173 84.8306 34.8418 87.8373C39.6264 83.643 50.8112 80.676 63.86 80.676Z" fill="#28BBE5"/>
<path d="M63.8601 80.7537C76.8623 80.7537 88.0626 83.7052 92.8317 87.8684C94.4608 84.8852 95.3204 81.5429 95.3327 78.1439C95.3327 64.3338 81.243 51.7355 63.8601 51.7355C46.4771 51.7355 32.403 64.3649 32.403 78.1439C32.4078 81.5419 33.2623 84.8848 34.8885 87.8684C39.6575 83.7052 50.8423 80.7537 63.8601 80.7537Z" fill="#37BDE6"/>
<path d="M63.8601 80.8469C76.8468 80.8469 88.0316 83.7674 92.7851 87.915C94.4166 84.9496 95.2766 81.6217 95.2861 78.2371C95.2861 64.5203 81.212 51.9685 63.8601 51.9685C46.5082 51.9685 32.4341 64.5203 32.4341 78.2371C32.4506 81.6188 33.3045 84.9438 34.9196 87.915C39.6886 83.7674 50.8578 80.8469 63.8601 80.8469Z" fill="#43BFE6"/>
<path d="M63.86 80.9867C76.8312 80.9867 87.9849 83.8916 92.7539 88.0082C94.3737 85.0669 95.2283 81.7657 95.2394 78.408C95.2394 64.7688 81.2585 52.2947 63.86 52.2947C46.4615 52.2947 32.4806 64.7222 32.4806 78.408C32.4897 81.766 33.3445 85.0676 34.9661 88.0082C39.7196 83.8295 50.8733 80.9867 63.86 80.9867Z" fill="#4DC0E7"/>
<path d="M63.86 80.9867C76.8157 80.9867 87.9538 83.8761 92.7074 87.9616C94.3337 85.0447 95.1942 81.7631 95.2084 78.4235C95.2084 64.8775 81.2275 52.4811 63.86 52.4811C46.4926 52.4811 32.5272 64.9086 32.5272 78.4235C32.5387 81.7596 33.388 85.0393 34.9972 87.9616C39.7507 83.8916 50.8888 80.9867 63.86 80.9867Z" fill="#56C2E8"/>
<path d="M63.8601 81.0954C76.8002 81.0954 87.9228 83.9538 92.6763 88.0082C94.2884 85.1144 95.1433 81.8603 95.1618 78.5478C95.1618 65.095 81.1809 52.7607 63.8601 52.7607C46.5392 52.7607 32.5739 65.095 32.5739 78.5478C32.5781 81.8601 33.4283 85.1165 35.0438 88.0082C39.7818 83.9538 50.9044 81.0954 63.8601 81.0954Z" fill="#5EC4E8"/>
<path d="M63.86 81.1731C76.7691 81.1731 87.8917 84.0159 92.6297 88.0548C94.2481 85.1804 95.1037 81.9396 95.1152 78.641C95.1152 65.2814 81.1342 53.0248 63.86 53.0248C46.5858 53.0248 32.6049 65.2814 32.6049 78.641C32.6184 81.9374 33.4683 85.1764 35.0748 88.0548C39.8283 84.0935 50.9199 81.1731 63.86 81.1731Z" fill="#65C6E9"/>
<path d="M63.86 81.2507C76.7536 81.2507 87.8606 84.078 92.5986 88.0859C94.1994 85.2389 95.0495 82.0314 95.0686 78.7653C95.0686 65.4989 81.0876 53.3199 63.86 53.3199C46.6324 53.3199 32.7136 65.4523 32.7136 78.7342C32.7307 82.0006 33.5808 85.2086 35.1836 88.0548C39.8594 84.0935 50.951 81.2507 63.86 81.2507Z" fill="#6DC7EA"/>
<path d="M63.86 81.3284C76.738 81.3284 87.8296 84.1401 92.552 88.1169C94.1651 85.275 95.016 82.0642 95.022 78.7963C95.022 65.6076 81.041 53.5063 63.86 53.5063C46.679 53.5063 32.7136 65.6542 32.7136 78.8429C32.7142 82.1095 33.5597 85.3203 35.168 88.1635C39.8905 84.0935 50.9665 81.3284 63.86 81.3284Z" fill="#74C9EA"/>
<path d="M63.8601 81.4216C76.7226 81.4216 87.7986 84.2022 92.521 88.1635C94.1174 85.3485 94.9677 82.1722 94.991 78.9361C94.991 65.8406 81.0101 53.817 63.9223 53.817C46.8345 53.817 32.8535 65.8562 32.8535 78.9361C32.8624 82.1721 33.7079 85.3508 35.308 88.1635C39.9217 84.2022 50.9821 81.4216 63.8601 81.4216Z" fill="#7ACBEB"/>
<path d="M63.8601 81.4994C76.707 81.4994 87.7675 84.2645 92.4744 88.1947C94.0768 85.4104 94.928 82.2574 94.9444 79.0449C94.9444 66.0427 80.9634 54.0812 63.8756 54.0812C46.7878 54.0812 32.8069 66.0427 32.8069 79.0449C32.8235 82.2553 33.669 85.407 35.2613 88.1947C39.9527 84.2645 50.9976 81.4994 63.8601 81.4994Z" fill="#81CDEC"/>
<path d="M63.86 81.577C76.6914 81.577 87.7364 84.3266 92.4433 88.2257C94.0339 85.4599 94.8796 82.3286 94.8977 79.1381C94.8977 66.229 80.9945 54.2831 63.829 54.2831C46.6635 54.2831 32.7603 66.1824 32.7603 79.1381C32.7691 82.3299 33.6154 85.4635 35.2147 88.2257C39.9837 84.3266 51.0131 81.577 63.86 81.577Z" fill="#87CFEC"/>
<path d="M63.8601 81.6702C76.6759 81.6702 87.6898 84.3887 92.3967 88.2567C93.9882 85.5139 94.8344 82.4024 94.8511 79.2313C94.8511 66.4154 80.9634 54.5938 63.8601 54.5938C46.7567 54.5938 32.869 66.4154 32.869 79.2313C32.8803 82.401 33.7212 85.5127 35.3079 88.2567C40.0148 84.3887 51.0287 81.6702 63.8601 81.6702Z" fill="#8ED1ED"/>
<path d="M63.8601 81.7479C76.6604 81.7479 87.6588 84.4509 92.3657 88.3034C93.9528 85.5814 94.799 82.491 94.8201 79.3401C94.8201 66.6019 80.9479 54.8579 63.8601 54.8579C46.7723 54.8579 32.9156 66.6174 32.9156 79.3401C32.9291 82.49 33.7702 85.581 35.3546 88.3034C40.0459 84.4509 51.0598 81.7479 63.8601 81.7479Z" fill="#94D3EE"/>
<path d="M63.8601 81.8255C76.6449 81.8255 87.6277 84.513 92.3191 88.3344C93.9351 85.6433 94.8088 82.572 94.8512 79.4332C94.8512 66.7883 80.9945 55.1219 63.9378 55.1219C46.8811 55.1219 33.0244 66.8038 33.0244 79.4332C33.0378 82.5635 33.8792 85.6345 35.4633 88.3344C40.077 84.513 51.0753 81.8255 63.8601 81.8255Z" fill="#9AD5EF"/>
<path d="M63.8601 81.9033C76.6293 81.9033 87.5966 84.5752 92.2725 88.3656C93.8583 85.694 94.7054 82.6488 94.7269 79.5421C94.7269 66.9903 80.9013 55.3861 63.8601 55.3861C46.8189 55.3861 32.9933 66.9903 32.9933 79.5421C33.0071 82.6478 33.849 85.6936 35.4322 88.3656C40.108 84.5752 51.0908 81.9033 63.8601 81.9033Z" fill="#A0D7F0"/>
<path d="M63.8601 81.9964C76.6138 81.9964 87.5656 84.6373 92.2414 88.3966C93.8168 85.744 94.6585 82.7203 94.6803 79.6352C94.6803 67.2077 80.8702 55.6501 63.8601 55.6501C46.85 55.6501 33.0399 67.1767 33.0399 79.6352C33.0487 82.72 33.8857 85.7458 35.4633 88.3966C40.1391 84.6373 51.1064 81.9964 63.8601 81.9964Z" fill="#A6D9F0"/>
<path d="M63.86 82.0741C76.5982 82.0741 87.5344 84.6994 92.1947 88.4432C93.7816 85.8118 94.6295 82.8012 94.6491 79.7284C94.6491 67.3009 80.8546 55.9142 63.86 55.9142C46.8654 55.9142 33.0864 67.3786 33.0864 79.7284C33.0967 82.7983 33.9338 85.8087 35.5098 88.4432C40.1701 84.6994 51.1218 82.0741 63.86 82.0741Z" fill="#ACDCF1"/>
<path d="M63.86 82.1518C76.5672 82.1518 87.5034 84.7616 92.1637 88.4743C93.7359 85.8658 94.5782 82.8827 94.6026 79.8372C94.6026 67.5495 80.8236 56.1783 63.86 56.1783C46.8965 56.1783 33.1331 67.565 33.1331 79.8372C33.1465 82.8801 33.9782 85.8633 35.5409 88.4743C40.2168 84.7616 51.1374 82.1518 63.86 82.1518Z" fill="#B2DEF2"/>
<path d="M63.8601 82.2294C76.5517 82.2294 87.4723 84.8237 92.1171 88.4432C93.6892 85.8574 94.532 82.8943 94.556 79.8682C94.556 67.6893 80.7925 56.3802 63.8601 56.3802C46.9276 56.3802 33.1642 67.6893 33.1642 79.8682C33.1733 82.8943 34.0114 85.86 35.5875 88.4432C40.2479 84.8237 51.1685 82.2294 63.8601 82.2294Z" fill="#B8E0F3"/>
<path d="M63.8601 82.3227C76.5361 82.3227 87.4413 84.8859 92.0861 88.5364C93.6484 85.97 94.4859 83.0281 94.5094 80.0236C94.5094 67.9223 80.777 56.722 63.8601 56.722C46.9432 56.722 33.2108 67.9534 33.2108 80.0236C33.2242 83.0295 34.0624 85.9741 35.6342 88.5364C40.2789 84.8859 51.1841 82.3227 63.8601 82.3227Z" fill="#BDE2F4"/>
<path d="M63.86 82.4003C76.5205 82.4003 87.4101 84.948 92.0394 88.6141C93.6032 86.0711 94.4412 83.1486 94.4627 80.1634C94.4627 68.1553 80.7459 56.9861 63.86 56.9861C46.9741 56.9861 33.2573 68.1708 33.2573 80.1634C33.271 83.1476 34.1039 86.0708 35.6651 88.6141C40.3099 84.948 51.1995 82.4003 63.86 82.4003Z" fill="#C3E5F5"/>
<path d="M63.86 82.5401C76.505 82.5401 87.3636 85.0722 92.0084 88.6762C93.5649 86.1528 94.4028 83.2523 94.4317 80.2877C94.4317 68.3728 80.7304 57.2812 63.86 57.2812C46.9897 57.2812 33.304 68.3883 33.304 80.2877C33.3123 83.251 34.1403 86.1542 35.6963 88.6762C40.341 85.0101 51.2151 82.5401 63.86 82.5401Z" fill="#C9E7F5"/>
<path d="M63.86 82.5401C76.4894 82.5401 87.3325 85.0412 91.9617 88.6141C93.5171 86.1188 94.3555 83.2434 94.3851 80.3032C94.3851 68.466 80.6992 57.4521 63.86 57.4521C47.0207 57.4521 33.335 68.5592 33.335 80.3343C33.3493 83.2745 34.1832 86.1526 35.7428 88.6451C40.3721 85.0722 51.2305 82.5401 63.86 82.5401Z" fill="#CEE9F6"/>
<path d="M63.86 82.6489C76.4739 82.6489 87.3014 85.1344 91.9306 88.6918C93.479 86.2113 94.3123 83.3514 94.3385 80.4275C94.3385 68.6991 80.6837 57.7473 63.86 57.7473C47.0363 57.7473 33.3816 68.6991 33.3816 80.4275C33.3949 83.3772 34.2403 86.2632 35.8205 88.7539C40.4808 85.1344 51.2461 82.6489 63.86 82.6489Z" fill="#D4ECF7"/>
<path d="M63.86 82.7265C76.4584 82.7265 87.2703 85.1965 91.8219 88.7228C93.373 86.2722 94.2071 83.4363 94.2297 80.5362C94.2297 68.8854 80.5906 58.0114 63.7979 58.0114C47.0053 58.0114 33.3661 68.8854 33.3661 80.5362C33.3901 83.4525 34.2412 86.3021 35.8205 88.7539C40.4808 85.1965 51.3548 82.7265 63.86 82.7265Z" fill="#DAEEF8"/>
<path d="M63.8601 82.8043C76.4429 82.8043 87.2393 85.2587 91.822 88.7539C93.3735 86.3256 94.213 83.5109 94.2453 80.6295C94.2453 69.0719 80.6062 58.2755 63.8446 58.2755C47.083 58.2755 33.4594 69.1496 33.4594 80.6295C33.4705 83.5052 34.2886 86.3202 35.8206 88.7539C40.4809 85.2587 51.3549 82.8043 63.8601 82.8043Z" fill="#DFF1F9"/>
<path d="M63.8601 82.8974C76.4274 82.8974 87.1617 85.3208 91.822 88.785C93.3699 86.3789 94.2048 83.5836 94.2298 80.7226C94.2298 69.2583 80.6217 58.5396 63.8757 58.5396C47.1296 58.5396 33.5215 69.2738 33.5215 80.7226C33.5333 83.5833 34.3634 86.3808 35.9138 88.785C40.4809 85.3208 51.3549 82.8974 63.8601 82.8974Z" fill="#E5F3FA"/>
<path d="M63.86 82.9751C76.4118 82.9751 87.1616 85.3829 91.8219 88.8315C93.3649 86.4461 94.1998 83.6721 94.2298 80.8313C94.2298 69.4602 80.6372 58.8036 63.9222 58.8036C47.2072 58.8036 33.6146 69.4602 33.6146 80.8313C33.6336 83.6693 34.4578 86.4435 35.9914 88.8315C40.4808 85.3829 51.3549 82.9751 63.86 82.9751Z" fill="#EBF6FB"/>
<path d="M63.86 83.0528C76.3963 83.0528 87.1616 85.4451 91.7287 88.8627C93.2612 86.4963 94.0908 83.7437 94.121 80.9246C94.121 69.6467 80.5595 59.0677 63.86 59.0677C47.1606 59.0677 33.5991 69.6467 33.5991 80.9867C33.6161 83.8056 34.441 86.5604 35.9759 88.9248C40.5585 85.4451 51.3549 83.0528 63.86 83.0528Z" fill="#F1F8FD"/>
<path d="M63.8601 83.1304C76.3808 83.1304 87.1616 85.5071 91.6821 88.8936C93.2273 86.5447 94.0583 83.7982 94.0744 80.9866C94.0744 69.7864 80.5285 59.2385 63.8601 59.2385C47.1917 59.2385 33.6458 69.7553 33.6458 80.9866C33.6599 83.7794 34.4798 86.5088 36.007 88.847C40.6051 85.5071 51.3549 83.1304 63.8601 83.1304Z" fill="#F7FBFE"/>
<path d="M63.86 83.2236C76.2875 83.2236 87.0684 85.5693 91.651 88.9403C93.1713 86.6316 94.0013 83.9371 94.0433 81.1731C94.0433 70.066 80.5129 59.6425 63.86 59.6425C47.2072 59.6425 33.6768 70.0816 33.6768 81.1731C33.7055 83.9369 34.5307 86.6337 36.0535 88.9403C40.6362 85.647 51.3549 83.2236 63.86 83.2236Z" fill="white"/>
<path d="M63.8602 72.1322C53.8059 72.0395 43.8141 73.7223 34.3448 77.1032C36.8808 82.7986 41.0132 87.6368 46.2419 91.0323C51.4705 94.4277 57.5714 96.2348 63.8058 96.2348C70.0403 96.2348 76.1411 94.4277 81.3697 91.0323C86.5984 87.6368 90.7308 82.7986 93.2668 77.1032C83.833 73.7305 73.8783 72.0478 63.8602 72.1322V72.1322Z" fill="#0083CA"/>
</g>
</svg>
