<svg width="64" height="64" viewBox="0 0 64 64" fill="none" xmlns="http://www.w3.org/2000/svg">
<circle cx="32" cy="32" r="26.6667" fill="#DBEAFE"/>
<g clip-path="url(#clip0_238_554)">
<path d="M31.9379 48.1208C35.1271 48.1208 38.2446 47.1751 40.8963 45.4033C43.548 43.6315 45.6147 41.1132 46.8352 38.1668C48.0556 35.2204 48.3749 31.9783 47.7528 28.8504C47.1306 25.7225 45.5949 22.8494 43.3398 20.5943C41.0847 18.3392 38.2116 16.8035 35.0837 16.1813C31.9558 15.5591 28.7137 15.8784 25.7673 17.0989C22.8209 18.3193 20.3026 20.3861 18.5308 23.0378C16.7589 25.6894 15.8132 28.807 15.8132 31.9961C15.8132 36.2727 17.5121 40.374 20.5361 43.398C23.56 46.422 27.6614 48.1208 31.9379 48.1208V48.1208Z" fill="#0083CA"/>
<mask id="mask0_238_554" style="mask-type:alpha" maskUnits="userSpaceOnUse" x="15" y="15" width="34" height="34">
<path d="M31.9379 48.1208C35.1271 48.1208 38.2446 47.1751 40.8963 45.4033C43.548 43.6315 45.6147 41.1132 46.8352 38.1668C48.0556 35.2204 48.3749 31.9783 47.7528 28.8504C47.1306 25.7225 45.5949 22.8494 43.3398 20.5943C41.0847 18.3392 38.2116 16.8035 35.0837 16.1813C31.9558 15.5591 28.7137 15.8784 25.7673 17.0989C22.8209 18.3193 20.3026 20.3861 18.5308 23.0378C16.7589 25.6894 15.8132 28.807 15.8132 31.9961C15.8132 36.2727 17.5121 40.374 20.5361 43.398C23.56 46.422 27.6614 48.1208 31.9379 48.1208V48.1208Z" fill="#0083CA"/>
</mask>
<g mask="url(#mask0_238_554)">
<path d="M31.9923 39.7865C39.076 39.7865 45.1499 41.7594 47.7519 44.5556C48.6518 42.4983 49.1147 40.2766 49.1112 38.0312C49.1112 33.493 47.3084 29.1407 44.0994 25.9318C40.8905 22.7228 36.5382 20.92 32.0001 20.92C27.4619 20.92 23.1096 22.7228 19.9007 25.9318C16.6917 29.1407 14.8889 33.493 14.8889 38.0312C14.8857 40.2758 15.3458 42.4969 16.2404 44.5556C18.8347 41.7594 24.9009 39.7865 31.9923 39.7865Z" fill="#0083CA"/>
<path d="M31.9923 39.8027C39.0604 39.8027 45.1188 41.7601 47.7131 44.5407C48.6068 42.4982 49.067 40.2924 49.0645 38.0629C49.0645 28.8898 41.4139 21.4333 31.9767 21.4333C22.5396 21.4333 14.8889 28.8898 14.8889 38.0629C14.8858 40.2925 15.3461 42.4984 16.2404 44.5407C18.8657 41.7601 24.9008 39.8027 31.9923 39.8027Z" fill="#0085CB"/>
<path d="M31.9923 39.8176C39.0371 39.8176 45.08 41.7672 47.6664 44.5168C48.559 42.493 49.0193 40.3052 49.0179 38.0933C49.0179 28.9902 41.3828 21.5725 31.9923 21.5725C22.6017 21.5725 14.9666 28.9979 14.9666 38.0933C14.9633 40.3054 15.4237 42.4936 16.3181 44.5168C18.8968 41.7672 24.9396 39.8176 31.9923 39.8176Z" fill="#0086CC"/>
<path d="M31.9846 39.8409C39.0139 39.8409 45.049 41.7671 47.6277 44.5012C48.5161 42.5062 48.9765 40.3471 48.9792 38.1632C48.9792 29.1377 41.3673 21.7511 31.9923 21.7511C22.6174 21.7511 15.021 29.1377 15.021 38.1632C15.016 40.3571 15.4739 42.5274 16.3648 44.5323C18.9279 41.7671 24.9553 39.8409 31.9846 39.8409Z" fill="#0088CC"/>
<path d="M31.9845 39.8564C38.9749 39.8564 45.0101 41.7671 47.581 44.4779C48.4702 42.4916 48.9282 40.3394 48.9247 38.1631C48.9247 29.2076 41.3362 21.8521 31.9845 21.8521C22.6328 21.8521 15.052 29.1998 15.052 38.1631C15.0489 40.3385 15.5041 42.4901 16.388 44.4779C18.9589 41.7671 24.9707 39.8564 31.9845 39.8564Z" fill="#0089CD"/>
<path d="M31.9845 39.8719C38.9749 39.8719 44.9712 41.7671 47.5189 44.4546C48.4017 42.4857 48.857 40.352 48.8548 38.1942C48.8548 29.3085 41.2818 21.9996 31.9612 21.9996C22.6406 21.9996 15.0753 29.3163 15.0753 38.1942C15.0735 40.3511 15.526 42.4842 16.4035 44.4546C18.99 41.7671 24.994 39.8719 31.9845 39.8719Z" fill="#008BCE"/>
<path d="M31.9845 39.8952C38.975 39.8952 44.9402 41.7671 47.5189 44.439C48.4007 42.4863 48.8561 40.3679 48.8548 38.2253C48.8548 29.4173 41.3051 22.1472 32.0078 22.1472C22.7105 22.1472 15.1608 29.4173 15.1608 38.2253C15.1599 40.3671 15.6125 42.4848 16.489 44.439C19.0211 41.7671 25.0096 39.8952 31.9845 39.8952Z" fill="#008DCF"/>
<path d="M31.9768 39.9109C38.9673 39.9109 44.9014 41.775 47.4568 44.4158C48.3325 42.4805 48.7853 40.3807 48.785 38.2564C48.785 29.5261 41.2586 22.2871 31.9768 22.2871C22.695 22.2871 15.1764 29.5261 15.1764 38.2564C15.1754 40.3807 15.6282 42.4807 16.5046 44.4158C19.0522 41.775 25.0252 39.9109 31.9768 39.9109Z" fill="#008ED0"/>
<path d="M31.9767 39.9264C38.9128 39.9264 44.8703 41.775 47.4101 44.3925C48.29 42.4778 48.7432 40.3947 48.7383 38.2875C48.7383 29.6271 41.2274 22.4347 31.9767 22.4347C22.726 22.4347 15.2229 29.6349 15.2229 38.2875C15.2186 40.3938 15.669 42.4763 16.5433 44.3925C19.0832 41.775 25.0406 39.9264 31.9767 39.9264Z" fill="#0090D0"/>
<path d="M31.9767 39.9497C38.8895 39.9497 44.8314 41.775 47.3713 44.377C48.244 42.4766 48.6945 40.4097 48.6917 38.3186C48.6917 29.7746 41.2041 22.5745 31.9767 22.5745C22.7493 22.5745 15.2617 29.7358 15.2617 38.3186C15.2619 40.4094 15.7122 42.4757 16.5821 44.377C19.122 41.775 25.0561 39.9497 31.9767 39.9497Z" fill="#0092D1"/>
<path d="M31.9768 39.9652C38.874 39.9652 44.7927 41.7749 47.3325 44.3536C48.2006 42.471 48.6511 40.4227 48.6529 38.3496C48.6529 29.8057 41.1809 22.7142 31.9768 22.7142C22.7727 22.7142 15.3007 29.8445 15.3007 38.3496C15.3008 40.4229 15.7513 42.4715 16.6211 44.3536C19.1532 41.7749 25.0718 39.9652 31.9768 39.9652Z" fill="#0093D2"/>
<path d="M31.9689 39.9807C38.8507 39.9807 44.7615 41.7827 47.2858 44.3304C48.1545 42.4671 48.6052 40.4365 48.6062 38.3807C48.6062 29.9455 41.1498 22.8463 31.9689 22.8463C22.7881 22.8463 15.3472 29.9378 15.3472 38.3807C15.3448 40.436 15.7929 42.4668 16.6598 44.3304C19.1842 41.7827 25.0872 39.9807 31.9689 39.9807Z" fill="#0095D3"/>
<path d="M31.9691 40.004C38.8275 40.004 44.7228 41.7826 47.2471 44.3147C48.1125 42.4672 48.5606 40.4519 48.5598 38.4117C48.5598 30.0542 41.1266 23.0016 31.9691 23.0016C22.8116 23.0016 15.3861 30.0542 15.3861 38.4117C15.3837 40.452 15.832 42.4677 16.6988 44.3147C19.2153 41.7826 25.1029 40.004 31.9691 40.004Z" fill="#0097D4"/>
<path d="M31.969 40.0195C38.8119 40.0195 44.6917 41.7827 47.2005 44.2915C48.0647 42.4655 48.513 40.4706 48.5131 38.4505C48.5131 30.1629 41.1033 23.1492 31.969 23.1492C22.8348 23.1492 15.4249 30.1396 15.4249 38.4505C15.4243 40.4707 15.8726 42.4658 16.7376 44.2915C19.2464 41.7827 25.1184 40.0195 31.969 40.0195Z" fill="#0098D5"/>
<path d="M31.9612 40.0351C38.7885 40.0351 44.6528 41.7827 47.1616 44.2682C48.0194 42.4597 48.4651 40.4833 48.4665 38.4817C48.4665 30.264 41.0721 23.2891 31.9612 23.2891C22.8503 23.2891 15.4714 30.2795 15.4714 38.4817C15.471 40.4835 15.9167 42.4603 16.7763 44.2682C19.2774 41.7827 25.1338 40.0351 31.9612 40.0351Z" fill="#009AD5"/>
<path d="M31.9613 40.0507C38.7653 40.0507 44.614 41.7905 47.1151 44.2527C47.9719 42.4604 48.4177 40.4994 48.4199 38.5128C48.4199 30.3727 41.0489 23.4366 31.9613 23.4366C22.8737 23.4366 15.5104 30.3727 15.5104 38.5128C15.5108 40.4996 15.9567 42.461 16.8153 44.2527C19.3085 41.7905 25.1494 40.0507 31.9613 40.0507Z" fill="#009CD6"/>
<path d="M31.9612 40.0739C38.7497 40.0739 44.5829 41.7905 47.0761 44.2294C47.9268 42.4545 48.37 40.512 48.3733 38.5438C48.3733 30.4814 41.0177 23.5764 31.9612 23.5764C22.9047 23.5764 15.5802 30.4814 15.5802 38.5438C15.5816 40.513 16.0277 42.4566 16.8851 44.2294C19.3395 41.7905 25.1649 40.0739 31.9612 40.0739Z" fill="#009ED7"/>
<path d="M31.9612 40.0894C38.7264 40.0894 44.544 41.7904 47.0295 44.206C47.8834 42.4516 48.327 40.526 48.3267 38.5748C48.3267 30.5824 40.9944 23.7162 31.9612 23.7162C22.928 23.7162 15.5802 30.5824 15.5802 38.5748C15.578 40.5262 16.0216 42.4523 16.8773 44.206C19.3706 41.7904 25.1804 40.0894 31.9612 40.0894Z" fill="#00A0D8"/>
<path d="M31.9535 40.105C38.7032 40.105 44.5131 41.7905 46.9908 44.1905C47.8384 42.4508 48.2794 40.5411 48.2801 38.6059C48.2801 30.6912 40.9712 23.8483 31.969 23.8483C22.9669 23.8483 15.658 30.6756 15.658 38.6059C15.6579 40.5412 16.0989 42.4511 16.9473 44.1905C19.4017 41.7905 25.196 40.105 31.9535 40.105Z" fill="#00A1D9"/>
<path d="M31.9535 40.1283C38.6876 40.1283 44.4742 41.7983 46.9442 44.1673C47.7915 42.4468 48.2327 40.5548 48.2335 38.637C48.2335 30.7999 40.9401 24.0037 31.9224 24.0037C22.9047 24.0037 15.6113 30.7999 15.6113 38.637C15.6149 40.5545 16.0559 42.4459 16.9007 44.1673C19.4639 41.7983 25.2193 40.1283 31.9535 40.1283Z" fill="#00A3DA"/>
<path d="M31.9535 40.1439C38.6644 40.1439 44.4354 41.7983 46.9053 44.144C47.7441 42.4536 48.1851 40.5939 48.1947 38.7069C48.1947 30.9397 40.9168 24.1901 31.9535 24.1901C22.9902 24.1901 15.7201 30.9397 15.7201 38.7069C15.727 40.5933 16.1654 42.4531 17.0017 44.144C19.4639 41.7983 25.2349 40.1439 31.9535 40.1439Z" fill="#00A5DB"/>
<path d="M31.9535 40.1593C38.641 40.1593 44.381 41.7982 46.8587 44.1284C47.706 42.4411 48.1475 40.5793 48.1481 38.6913C48.1481 31.0018 40.8935 24.2832 31.9535 24.2832C23.0134 24.2832 15.7589 31.0018 15.7589 38.6913C15.7588 40.5785 16.1976 42.4399 17.0405 44.1284C19.4639 41.7982 25.2504 40.1593 31.9535 40.1593Z" fill="#00A7DC"/>
<path d="M31.9458 40.1827C38.6255 40.1827 44.3732 41.7983 46.8199 44.1051C47.6596 42.4404 48.0984 40.6025 48.1015 38.738C48.1015 31.1184 40.8625 24.4386 31.9458 24.4386C23.029 24.4386 15.8055 31.1184 15.8055 38.738C15.8059 40.6019 16.2421 42.4398 17.0793 44.1051C19.526 41.7983 25.266 40.1827 31.9458 40.1827Z" fill="#00A9DD"/>
<path d="M31.9457 40.1982C38.6022 40.1982 44.3344 41.806 46.7733 44.0818C47.6129 42.4365 48.052 40.6162 48.0549 38.769C48.0549 31.2193 40.8392 24.5784 31.9457 24.5784C23.0523 24.5784 15.8444 31.2193 15.8444 38.769C15.8475 40.6152 16.2838 42.4349 17.1182 44.0818C19.5571 41.806 25.2815 40.1982 31.9457 40.1982Z" fill="#00ABDE"/>
<path d="M31.9457 40.2138C38.5866 40.2138 44.2955 41.806 46.7033 44.0974C47.5358 42.4665 47.9722 40.6623 47.9771 38.8312C47.9771 31.3592 40.7847 24.7571 31.9146 24.7571C23.0445 24.7571 15.8521 31.3592 15.8521 38.8312C15.8642 40.6524 16.3031 42.4454 17.1336 44.0663C19.5958 41.8061 25.2969 40.2138 31.9457 40.2138Z" fill="#00ADDE"/>
<path d="M31.9379 40.2292C38.5633 40.2292 44.2567 41.7827 46.6956 44.0429C47.5312 42.4327 47.9681 40.6453 47.9694 38.8312C47.9694 31.4368 40.7925 24.8502 31.9457 24.8502C23.0989 24.8502 15.9375 31.4213 15.9375 38.8312C15.9391 40.6444 16.3731 42.4311 17.2036 44.0429C19.6269 41.806 25.3125 40.2292 31.9379 40.2292Z" fill="#00AFDF"/>
<path d="M31.938 40.2526C38.5401 40.2526 44.2256 41.806 46.649 44.0197C47.4784 42.4269 47.9126 40.658 47.9151 38.8623C47.9151 31.5378 40.7615 25.0056 31.938 25.0056C23.1144 25.0056 15.9686 31.5378 15.9686 38.8623C15.9702 40.6582 16.4045 42.4272 17.2347 44.0197C19.658 41.806 25.3281 40.2526 31.938 40.2526Z" fill="#00B1E0"/>
<path d="M31.938 40.2681C38.5245 40.2681 44.1868 41.8216 46.6024 44.0042C47.4314 42.428 47.8658 40.6743 47.8685 38.8933C47.8685 31.6466 40.7382 25.1532 31.938 25.1532C23.1377 25.1532 16.0074 31.6466 16.0074 38.8933C16.0091 40.6744 16.4436 42.4283 17.2735 44.0042C19.6891 41.8138 25.3436 40.2681 31.938 40.2681Z" fill="#00B3E1"/>
<path d="M31.938 40.2836C38.5013 40.2836 44.1558 41.8371 46.5636 43.9808C47.3866 42.4222 47.8185 40.6869 47.8219 38.9244C47.8219 31.7475 40.7071 25.293 31.938 25.293C23.1688 25.293 16.0541 31.7553 16.0541 38.9244C16.0575 40.6869 16.4894 42.4222 17.3124 43.9808C19.7202 41.8138 25.3592 40.2836 31.938 40.2836Z" fill="#0DB5E2"/>
<path d="M31.9302 40.3069C38.4779 40.3069 44.1169 41.8138 46.5169 43.9575C47.3393 42.4183 47.7714 40.7007 47.7753 38.9555C47.7753 31.8563 40.6838 25.4406 31.9302 25.4406C23.1766 25.4406 16.0929 31.8563 16.0929 38.9555C16.0967 40.7007 16.5288 42.4183 17.3512 43.9575C19.7512 41.8138 25.3747 40.3069 31.9302 40.3069Z" fill="#19B7E3"/>
<path d="M31.9302 40.3224C38.4624 40.3224 44.0781 41.8137 46.4781 43.9419C47.2984 42.4214 47.7307 40.7219 47.7364 38.9943C47.7364 32.0038 40.6605 25.5803 31.9302 25.5803C23.1999 25.5803 16.1317 31.965 16.1317 38.9943C16.1365 40.722 16.5688 42.4218 17.39 43.9419C19.7823 41.8137 25.3902 40.3224 31.9302 40.3224Z" fill="#21B9E4"/>
<path d="M31.9302 40.338C38.4391 40.338 44.047 41.8215 46.4393 43.9187C47.2531 42.4155 47.6827 40.7346 47.6898 39.0253C47.6898 32.0349 40.6294 25.7279 31.9302 25.7279C23.2309 25.7279 16.1783 32.0659 16.1783 39.0253C16.1818 40.7341 16.6088 42.4153 17.4211 43.9187C19.8134 41.8215 25.4058 40.338 31.9302 40.338Z" fill="#28BBE5"/>
<path d="M31.9301 40.3769C38.4312 40.3769 44.0314 41.8527 46.4159 43.9343C47.2305 42.4427 47.6603 40.7715 47.6664 39.072C47.6664 32.167 40.6216 25.8678 31.9301 25.8678C23.2386 25.8678 16.2015 32.1825 16.2015 39.072C16.204 40.771 16.6312 42.4425 17.4443 43.9343C19.8288 41.8527 25.4212 40.3769 31.9301 40.3769Z" fill="#37BDE6"/>
<path d="M31.9302 40.4234C38.4235 40.4234 44.0159 41.8837 46.3927 43.9575C47.2084 42.4748 47.6384 40.8108 47.6432 39.1186C47.6432 32.2601 40.6061 25.9843 31.9302 25.9843C23.2542 25.9843 16.2172 32.2601 16.2172 39.1186C16.2254 40.8094 16.6524 42.4719 17.4599 43.9575C19.8444 41.8837 25.429 40.4234 31.9302 40.4234Z" fill="#43BFE6"/>
<path d="M31.9302 40.4933C38.4158 40.4933 43.9926 41.9458 46.3771 44.0041C47.187 42.5335 47.6143 40.8829 47.6199 39.204C47.6199 32.3844 40.6294 26.1473 31.9302 26.1473C23.2309 26.1473 16.2405 32.3611 16.2405 39.204C16.245 40.883 16.6724 42.5338 17.4832 44.0041C19.86 41.9147 25.4368 40.4933 31.9302 40.4933Z" fill="#4DC0E7"/>
<path d="M31.9302 40.4934C38.408 40.4934 43.9771 41.9381 46.3539 43.9809C47.167 42.5224 47.5973 40.8816 47.6044 39.2118C47.6044 32.4388 40.6139 26.2406 31.9302 26.2406C23.2465 26.2406 16.2638 32.4544 16.2638 39.2118C16.2695 40.8798 16.6942 42.5197 17.4988 43.9809C19.8755 41.9459 25.4446 40.4934 31.9302 40.4934Z" fill="#56C2E8"/>
<path d="M31.9301 40.5477C38.4002 40.5477 43.9615 41.9769 46.3382 44.0041C47.1442 42.5572 47.5717 40.9301 47.581 39.2739C47.581 32.5475 40.5905 26.3804 31.9301 26.3804C23.2697 26.3804 16.287 32.5475 16.287 39.2739C16.2891 40.9301 16.7142 42.5583 17.522 44.0041C19.891 41.9769 25.4523 40.5477 31.9301 40.5477Z" fill="#5EC4E8"/>
<path d="M31.9302 40.5866C38.3847 40.5866 43.946 42.008 46.315 44.0275C47.1242 42.5903 47.552 40.9699 47.5578 39.3205C47.5578 32.6408 40.5673 26.5125 31.9302 26.5125C23.2931 26.5125 16.3026 32.6408 16.3026 39.3205C16.3094 40.9687 16.7343 42.5883 17.5376 44.0275C19.9144 42.0468 25.4601 40.5866 31.9302 40.5866Z" fill="#65C6E9"/>
<path d="M31.9301 40.6254C38.3769 40.6254 43.9304 42.0391 46.2994 44.043C47.0998 42.6195 47.5249 41.0157 47.5344 39.3827C47.5344 32.7495 40.5439 26.66 31.9301 26.66C23.3163 26.66 16.3569 32.7262 16.3569 39.3672C16.3655 41.0003 16.7905 42.6044 17.5919 44.0275C19.9298 42.0468 25.4756 40.6254 31.9301 40.6254Z" fill="#6DC7EA"/>
<path d="M31.9301 40.6642C38.3691 40.6642 43.9149 42.0701 46.2761 44.0585C47.0827 42.6375 47.5081 41.0321 47.5111 39.3981C47.5111 32.8038 40.5206 26.7532 31.9301 26.7532C23.3396 26.7532 16.3569 32.8271 16.3569 39.4214C16.3572 41.0547 16.78 42.6602 17.5841 44.0818C19.9454 42.0468 25.4834 40.6642 31.9301 40.6642Z" fill="#74C9EA"/>
<path d="M31.9302 40.7109C38.3614 40.7109 43.8994 42.1012 46.2606 44.0818C47.0588 42.6743 47.484 41.0861 47.4956 39.4681C47.4956 32.9204 40.5052 26.9086 31.9613 26.9086C23.4173 26.9086 16.4269 32.9281 16.4269 39.4681C16.4313 41.0861 16.8541 42.6755 17.6541 44.0818C19.961 42.1012 25.4912 40.7109 31.9302 40.7109Z" fill="#7ACBEB"/>
<path d="M31.9302 40.7496C38.3536 40.7496 43.8839 42.1322 46.2373 44.0973C47.0385 42.7051 47.4641 41.1286 47.4723 39.5224C47.4723 33.0213 40.4818 27.0405 31.9379 27.0405C23.394 27.0405 16.4036 33.0213 16.4036 39.5224C16.4119 41.1276 16.8346 42.7034 17.6308 44.0973C19.9765 42.1322 25.4989 40.7496 31.9302 40.7496Z" fill="#81CDEC"/>
<path d="M31.9301 40.7886C38.3458 40.7886 43.8683 42.1633 46.2218 44.1129C47.0171 42.73 47.4399 41.1644 47.449 39.5691C47.449 33.1146 40.4974 27.1416 31.9146 27.1416C23.3319 27.1416 16.3802 33.0913 16.3802 39.5691C16.3847 41.165 16.8078 42.7318 17.6075 44.1129C19.992 42.1633 25.5067 40.7886 31.9301 40.7886Z" fill="#87CFEC"/>
<path d="M31.9301 40.8351C38.338 40.8351 43.845 42.1943 46.1984 44.1284C46.9942 42.7569 47.4172 41.2012 47.4256 39.6156C47.4256 33.2077 40.4818 27.2969 31.9301 27.2969C23.3784 27.2969 16.4346 33.2077 16.4346 39.6156C16.4402 41.2005 16.8607 42.7563 17.654 44.1284C20.0075 42.1943 25.5144 40.8351 31.9301 40.8351Z" fill="#8ED1ED"/>
<path d="M31.9301 40.874C38.3303 40.874 43.8294 42.2255 46.1829 44.1517C46.9764 42.7907 47.3996 41.2455 47.4101 39.67C47.4101 33.301 40.474 27.429 31.9301 27.429C23.3862 27.429 16.4579 33.3087 16.4579 39.67C16.4646 41.245 16.8852 42.7905 17.6773 44.1517C20.023 42.2255 25.5299 40.874 31.9301 40.874Z" fill="#94D3EE"/>
<path d="M31.9302 40.9128C38.3226 40.9128 43.814 42.2565 46.1597 44.1673C46.9677 42.8217 47.4045 41.286 47.4257 39.7167C47.4257 33.3942 40.4974 27.561 31.969 27.561C23.4407 27.561 16.5123 33.402 16.5123 39.7167C16.519 41.2818 16.9397 42.8173 17.7318 44.1673C20.0386 42.2565 25.5378 40.9128 31.9302 40.9128Z" fill="#9AD5EF"/>
<path d="M31.9301 40.9516C38.3147 40.9516 43.7984 42.2875 46.1363 44.1827C46.9292 42.8469 47.3528 41.3243 47.3635 39.771C47.3635 33.4951 40.4507 27.693 31.9301 27.693C23.4095 27.693 16.4967 33.4951 16.4967 39.771C16.5036 41.3238 16.9245 42.8468 17.7162 44.1827C20.0541 42.2875 25.5455 40.9516 31.9301 40.9516Z" fill="#A0D7F0"/>
<path d="M31.9301 40.9982C38.307 40.9982 43.7829 42.3186 46.1208 44.1983C46.9085 42.872 47.3293 41.3601 47.3402 39.8176C47.3402 33.6039 40.4352 27.8251 31.9301 27.8251C23.425 27.8251 16.52 33.5883 16.52 39.8176C16.5244 41.36 16.9429 42.8729 17.7317 44.1983C20.0696 42.3186 25.5533 40.9982 31.9301 40.9982Z" fill="#A6D9F0"/>
<path d="M31.9301 41.0371C38.2992 41.0371 43.7673 42.3498 46.0975 44.2216C46.8909 42.9059 47.3149 41.4006 47.3247 39.8643C47.3247 33.6505 40.4274 27.9572 31.9301 27.9572C23.4328 27.9572 16.5433 33.6893 16.5433 39.8643C16.5485 41.3992 16.967 42.9044 17.755 44.2216C20.0852 42.3498 25.561 41.0371 31.9301 41.0371Z" fill="#ACDCF1"/>
<path d="M31.9301 41.0758C38.2837 41.0758 43.7518 42.3807 46.082 44.2371C46.8681 42.9329 47.2892 41.4413 47.3014 39.9185C47.3014 33.7747 40.4119 28.0891 31.9301 28.0891C23.4484 28.0891 16.5667 33.7825 16.5667 39.9185C16.5734 41.44 16.9892 42.9316 17.7706 44.2371C20.1085 42.3807 25.5688 41.0758 31.9301 41.0758Z" fill="#B2DEF2"/>
<path d="M31.9301 41.1148C38.2759 41.1148 43.7362 42.4119 46.0586 44.2217C46.8447 42.9288 47.2661 41.4472 47.2781 39.9342C47.2781 33.8447 40.3963 28.1902 31.9301 28.1902C23.4639 28.1902 16.5822 33.8447 16.5822 39.9342C16.5867 41.4472 17.0058 42.93 17.7938 44.2217C20.124 42.4119 25.5843 41.1148 31.9301 41.1148Z" fill="#B8E0F3"/>
<path d="M31.9301 41.1613C38.2681 41.1613 43.7207 42.4429 46.0431 44.2682C46.8243 42.9849 47.243 41.514 47.2548 40.0117C47.2548 33.9611 40.3886 28.361 31.9301 28.361C23.4716 28.361 16.6055 33.9766 16.6055 40.0117C16.6121 41.5147 17.0313 42.987 17.8171 44.2682C20.1395 42.4429 25.5921 41.1613 31.9301 41.1613Z" fill="#BDE2F4"/>
<path d="M31.9301 41.2002C38.2604 41.2002 43.7052 42.474 46.0198 44.307C46.8017 43.0355 47.2207 41.5743 47.2315 40.0817C47.2315 34.0776 40.3731 28.493 31.9301 28.493C23.4872 28.493 16.6288 34.0854 16.6288 40.0817C16.6356 41.5738 17.0521 43.0354 17.8327 44.307C20.1551 42.474 25.5999 41.2002 31.9301 41.2002Z" fill="#C3E5F5"/>
<path d="M31.9301 41.2701C38.2526 41.2701 43.6819 42.5361 46.0043 44.3381C46.7826 43.0764 47.2015 41.6262 47.216 40.1438C47.216 34.1864 40.3653 28.6406 31.9301 28.6406C23.495 28.6406 16.6521 34.1942 16.6521 40.1438C16.6563 41.6255 17.0703 43.0771 17.8483 44.3381C20.1706 42.505 25.6077 41.2701 31.9301 41.2701Z" fill="#C9E7F5"/>
<path d="M31.9301 41.2701C38.2448 41.2701 43.6664 42.5206 45.981 44.307C46.7587 43.0594 47.1779 41.6217 47.1927 40.1516C47.1927 34.233 40.3497 28.7261 31.9301 28.7261C23.5105 28.7261 16.6676 34.2796 16.6676 40.1671C16.6748 41.6373 17.0917 43.0763 17.8715 44.3226C20.1862 42.5361 25.6154 41.2701 31.9301 41.2701Z" fill="#CEE9F6"/>
<path d="M31.9301 41.3245C38.2371 41.3245 43.6508 42.5672 45.9654 44.3459C46.7396 43.1057 47.1563 41.6757 47.1694 40.2138C47.1694 34.3495 40.342 28.8737 31.9301 28.8737C23.5183 28.8737 16.6909 34.3495 16.6909 40.2138C16.6976 41.6886 17.1203 43.1316 17.9104 44.377C20.2405 42.5672 25.6232 41.3245 31.9301 41.3245Z" fill="#D4ECF7"/>
<path d="M31.9302 41.3633C38.2294 41.3633 43.6353 42.5983 45.9111 44.3615C46.6867 43.1362 47.1037 41.7182 47.1151 40.2682C47.1151 34.4428 40.2955 29.0057 31.8991 29.0057C23.5028 29.0057 16.6832 34.4428 16.6832 40.2682C16.6953 41.7263 17.1208 43.1511 17.9104 44.377C20.2406 42.5983 25.6776 41.3633 31.9302 41.3633Z" fill="#DAEEF8"/>
<path d="M31.9301 41.4021C38.2215 41.4021 43.6197 42.6293 45.911 44.3769C46.6868 43.1628 47.1066 41.7554 47.1227 40.3147C47.1227 34.5359 40.3031 29.1377 31.9224 29.1377C23.5416 29.1377 16.7297 34.5747 16.7297 40.3147C16.7353 41.7526 17.1444 43.16 17.9103 44.3769C20.2405 42.6293 25.6775 41.4021 31.9301 41.4021Z" fill="#DFF1F9"/>
<path d="M31.9302 41.4487C38.2138 41.4487 43.581 42.6604 45.9111 44.3925C46.6851 43.1894 47.1025 41.7918 47.115 40.3613C47.115 34.6291 40.311 29.2698 31.938 29.2698C23.5649 29.2698 16.7609 34.6369 16.7609 40.3613C16.7668 41.7916 17.1818 43.1904 17.957 44.3925C20.2406 42.6604 25.6776 41.4487 31.9302 41.4487Z" fill="#E5F3FA"/>
<path d="M31.9302 41.4876C38.2061 41.4876 43.581 42.6915 45.9111 44.4158C46.6826 43.2231 47.1001 41.8361 47.1151 40.4157C47.1151 34.7301 40.3188 29.4019 31.9613 29.4019C23.6038 29.4019 16.8075 34.7301 16.8075 40.4157C16.817 41.8347 17.2291 43.2218 17.9959 44.4158C20.2406 42.6915 25.6776 41.4876 31.9302 41.4876Z" fill="#EBF6FB"/>
<path d="M31.9301 41.5263C38.1983 41.5263 43.5809 42.7225 45.8645 44.4313C46.6307 43.2481 47.0455 41.8718 47.0606 40.4622C47.0606 34.8233 40.2799 29.5338 31.9301 29.5338C23.5804 29.5338 16.7997 34.8233 16.7997 40.4933C16.8082 41.9027 17.2206 43.2802 17.9881 44.4623C20.2794 42.7225 25.6776 41.5263 31.9301 41.5263Z" fill="#F1F8FD"/>
<path d="M31.9302 41.5652C38.1905 41.5652 43.5809 42.7536 45.8412 44.4468C46.6138 43.2723 47.0292 41.8991 47.0373 40.4933C47.0373 34.8932 40.2643 29.6193 31.9302 29.6193C23.596 29.6193 16.823 34.8776 16.823 40.4933C16.8301 41.8897 17.24 43.2544 18.0036 44.4235C20.3027 42.7536 25.6776 41.5652 31.9302 41.5652Z" fill="#F7FBFE"/>
<path d="M31.9301 41.6119C38.1439 41.6119 43.5343 42.7847 45.8256 44.4702C46.5858 43.3159 47.0008 41.9686 47.0218 40.5866C47.0218 35.0331 40.2566 29.8213 31.9301 29.8213C23.6037 29.8213 16.8385 35.0408 16.8385 40.5866C16.8529 41.9685 17.2655 43.3169 18.0269 44.4702C20.3182 42.8236 25.6776 41.6119 31.9301 41.6119Z" fill="white"/>
<path d="M31.9301 36.0661C26.903 36.0198 21.9071 36.8612 17.1725 38.5516C18.4404 41.3993 20.5066 43.8185 23.121 45.5162C25.7353 47.2139 28.7858 48.1175 31.903 48.1175C35.0202 48.1175 38.0706 47.2139 40.6849 45.5162C43.2993 43.8185 45.3655 41.3993 46.6334 38.5516C41.9165 36.8653 36.9392 36.024 31.9301 36.0661V36.0661Z" fill="#0083CA"/>
</g>
</g>
<defs>
<clipPath id="clip0_238_554">
<rect width="34.2222" height="33.8572" fill="white" transform="translate(14.8889 15.0714)"/>
</clipPath>
</defs>
</svg>
