<svg width="64" height="64" viewBox="0 0 64 64" fill="none" xmlns="http://www.w3.org/2000/svg">
<rect width="64" height="64" fill="white"/>
<path fill-rule="evenodd" clip-rule="evenodd" d="M32 58.3999C46.5803 58.3999 58.4 46.5802 58.4 31.9999C58.4 17.4196 46.5803 5.59992 32 5.59992C17.4197 5.59992 5.59998 17.4196 5.59998 31.9999C5.59998 46.5802 17.4197 58.3999 32 58.3999ZM32 58.6666C46.7276 58.6666 58.6666 46.7275 58.6666 31.9999C58.6666 17.2723 46.7276 5.33325 32 5.33325C17.2724 5.33325 5.33331 17.2723 5.33331 31.9999C5.33331 46.7275 17.2724 58.6666 32 58.6666Z" fill="black"/>
<circle cx="32" cy="31.9999" r="26.6667" fill="#85CCFF" fill-opacity="0.78"/>
<g clip-path="url(#clip0_238_554)">
<path d="M31.9378 48.1207C35.127 48.1207 38.2445 47.175 40.8962 45.4032C43.5479 43.6314 45.6146 41.1131 46.8351 38.1667C48.0555 35.2203 48.3748 31.9781 47.7527 28.8502C47.1305 25.7224 45.5947 22.8492 43.3397 20.5942C41.0846 18.3391 38.2114 16.8034 35.0836 16.1812C31.9557 15.559 28.7135 15.8783 25.7671 17.0988C22.8207 18.3192 20.3024 20.3859 18.5306 23.0376C16.7588 25.6893 15.8131 28.8069 15.8131 31.996C15.8131 36.2725 17.512 40.3739 20.5359 43.3979C23.5599 46.4219 27.6613 48.1207 31.9378 48.1207V48.1207Z" fill="#0083CA"/>
<mask id="mask0_238_554" style="mask-type:alpha" maskUnits="userSpaceOnUse" x="15" y="15" width="34" height="34">
<path d="M31.9379 48.1207C35.127 48.1207 38.2446 47.175 40.8962 45.4032C43.5479 43.6314 45.6147 41.1131 46.8351 38.1667C48.0556 35.2203 48.3749 31.9781 47.7527 28.8502C47.1305 25.7224 45.5948 22.8492 43.3397 20.5942C41.0846 18.3391 38.2115 16.8034 35.0836 16.1812C31.9557 15.559 28.7136 15.8783 25.7672 17.0988C22.8208 18.3192 20.3025 20.3859 18.5307 23.0376C16.7589 25.6893 15.8132 28.8069 15.8132 31.996C15.8132 36.2726 17.512 40.3739 20.536 43.3979C23.56 46.4219 27.6613 48.1207 31.9379 48.1207V48.1207Z" fill="#0083CA"/>
</mask>
<g mask="url(#mask0_238_554)">
<path d="M31.9922 39.7864C39.0758 39.7864 45.1498 41.7593 47.7518 44.5555C48.6517 42.4982 49.1145 40.2765 49.1111 38.031C49.1111 33.4929 47.3083 29.1406 44.0993 25.9317C40.8904 22.7227 36.5381 20.9199 31.9999 20.9199C27.4618 20.9199 23.1095 22.7227 19.9006 25.9317C16.6916 29.1406 14.8888 33.4929 14.8888 38.031C14.8856 40.2757 15.3457 42.4968 16.2403 44.5555C18.8346 41.7593 24.9007 39.7864 31.9922 39.7864Z" fill="#0083CA"/>
<path d="M31.9922 39.8027C39.0603 39.8027 45.1187 41.7601 47.7129 44.5407C48.6066 42.4982 49.0668 40.2924 49.0644 38.0629C49.0644 28.8898 41.4137 21.4333 31.9766 21.4333C22.5395 21.4333 14.8888 28.8898 14.8888 38.0629C14.8857 40.2925 15.346 42.4984 16.2403 44.5407C18.8656 41.7601 24.9007 39.8027 31.9922 39.8027Z" fill="#0085CB"/>
<path d="M31.9922 39.8174C39.037 39.8174 45.0799 41.7669 47.6664 44.5165C48.559 42.4928 49.0193 40.3049 49.0179 38.0931C49.0179 28.9899 41.3827 21.5723 31.9922 21.5723C22.6017 21.5723 14.9665 28.9977 14.9665 38.0931C14.9632 40.3051 15.4236 42.4933 16.318 44.5165C18.8967 41.7669 24.9396 39.8174 31.9922 39.8174Z" fill="#0086CC"/>
<path d="M31.9844 39.8408C39.0137 39.8408 45.0488 41.767 47.6275 44.5011C48.5159 42.506 48.9763 40.3469 48.979 38.163C48.979 29.1376 41.3672 21.751 31.9922 21.751C22.6172 21.751 15.0209 29.1376 15.0209 38.163C15.0158 40.357 15.4737 42.5272 16.3646 44.5321C18.9278 41.767 24.9551 39.8408 31.9844 39.8408Z" fill="#0088CC"/>
<path d="M31.9844 39.8564C38.9749 39.8564 45.01 41.7671 47.5809 44.4779C48.4701 42.4916 48.9281 40.3394 48.9246 38.1631C48.9246 29.2076 41.3361 21.8521 31.9844 21.8521C22.6327 21.8521 15.052 29.1998 15.052 38.1631C15.0489 40.3385 15.5041 42.4901 16.3879 44.4779C18.9589 41.7671 24.9706 39.8564 31.9844 39.8564Z" fill="#0089CD"/>
<path d="M31.9844 39.8718C38.9749 39.8718 44.9712 41.767 47.5188 44.4544C48.4016 42.4856 48.857 40.3518 48.8547 38.1941C48.8547 29.3084 41.2817 21.9995 31.9611 21.9995C22.6405 21.9995 15.0753 29.3162 15.0753 38.1941C15.0734 40.351 15.526 42.4841 16.4034 44.4544C18.9899 41.767 24.994 39.8718 31.9844 39.8718Z" fill="#008BCE"/>
<path d="M31.9844 39.8952C38.9748 39.8952 44.94 41.7671 47.5187 44.439C48.4006 42.4863 48.856 40.3679 48.8547 38.2253C48.8547 29.4173 41.305 22.1472 32.0077 22.1472C22.7104 22.1472 15.1606 29.4173 15.1606 38.2253C15.1597 40.3671 15.6124 42.4848 16.4889 44.439C19.021 41.7671 25.0094 39.8952 31.9844 39.8952Z" fill="#008DCF"/>
<path d="M31.9766 39.9106C38.9671 39.9106 44.9012 41.7747 47.4566 44.4156C48.3323 42.4803 48.7851 40.3804 48.7848 38.2562C48.7848 29.5259 41.2584 22.2869 31.9766 22.2869C22.6948 22.2869 15.1762 29.5259 15.1762 38.2562C15.1752 40.3805 15.628 42.4805 16.5044 44.4156C19.052 41.7747 25.025 39.9106 31.9766 39.9106Z" fill="#008ED0"/>
<path d="M31.9766 39.9263C38.9127 39.9263 44.8702 41.7749 47.41 44.3924C48.2899 42.4777 48.7431 40.3946 48.7382 38.2874C48.7382 29.627 41.2273 22.4346 31.9766 22.4346C22.7259 22.4346 15.2228 29.6348 15.2228 38.2874C15.2184 40.3937 15.6688 42.4762 16.5432 44.3924C19.0831 41.7749 25.0405 39.9263 31.9766 39.9263Z" fill="#0090D0"/>
<path d="M31.9766 39.9494C38.8894 39.9494 44.8313 41.7747 47.3712 44.3767C48.2439 42.4764 48.6944 40.4095 48.6916 38.3183C48.6916 29.7744 41.204 22.5742 31.9766 22.5742C22.7492 22.5742 15.2617 29.7356 15.2617 38.3183C15.2618 40.4091 15.7122 42.4754 16.5821 44.3767C19.122 41.7747 25.0561 39.9494 31.9766 39.9494Z" fill="#0092D1"/>
<path d="M31.9766 39.965C38.8739 39.965 44.7925 41.7748 47.3323 44.3535C48.2005 42.4708 48.6509 40.4226 48.6528 38.3495C48.6528 29.8056 41.1807 22.7141 31.9766 22.7141C22.7725 22.7141 15.3005 29.8444 15.3005 38.3495C15.3006 40.4228 15.7511 42.4714 16.6209 44.3535C19.153 41.7748 25.0716 39.965 31.9766 39.965Z" fill="#0093D2"/>
<path d="M31.9689 39.9806C38.8506 39.9806 44.7614 41.7826 47.2858 44.3302C48.1545 42.467 48.6051 40.4363 48.6062 38.3806C48.6062 29.9454 41.1497 22.8462 31.9689 22.8462C22.7881 22.8462 15.3471 29.9376 15.3471 38.3806C15.3447 40.4359 15.7928 42.4667 16.6598 44.3302C19.1841 41.7826 25.0872 39.9806 31.9689 39.9806Z" fill="#0095D3"/>
<path d="M31.9689 40.0038C38.8273 40.0038 44.7226 41.7825 47.2469 44.3146C48.1123 42.4671 48.5604 40.4517 48.5596 38.4116C48.5596 30.0541 41.1264 23.0015 31.9689 23.0015C22.8114 23.0015 15.3859 30.0541 15.3859 38.4116C15.3836 40.4519 15.8318 42.4676 16.6986 44.3146C19.2152 41.7825 25.1027 40.0038 31.9689 40.0038Z" fill="#0097D4"/>
<path d="M31.9689 40.0195C38.8118 40.0195 44.6915 41.7827 47.2003 44.2915C48.0645 42.4655 48.5129 40.4706 48.513 38.4505C48.513 30.1629 41.1031 23.1492 31.9689 23.1492C22.8347 23.1492 15.4247 30.1396 15.4247 38.4505C15.4241 40.4707 15.8724 42.4658 16.7374 44.2915C19.2462 41.7827 25.1182 40.0195 31.9689 40.0195Z" fill="#0098D5"/>
<path d="M31.9611 40.0349C38.7885 40.0349 44.6527 41.7825 47.1615 44.268C48.0194 42.4595 48.4651 40.4831 48.4664 38.4814C48.4664 30.2637 41.072 23.2888 31.9611 23.2888C22.8502 23.2888 15.4714 30.2793 15.4714 38.4814C15.4709 40.4833 15.9167 42.4601 16.7763 44.268C19.2773 41.7825 25.1338 40.0349 31.9611 40.0349Z" fill="#009AD5"/>
<path d="M31.9611 40.0505C38.7651 40.0505 44.6138 41.7904 47.1149 44.2526C47.9717 42.4603 48.4175 40.4992 48.4198 38.5126C48.4198 30.3726 41.0487 23.4365 31.9611 23.4365C22.8735 23.4365 15.5102 30.3726 15.5102 38.5126C15.5106 40.4994 15.9565 42.4609 16.8151 44.2526C19.3083 41.7904 25.1493 40.0505 31.9611 40.0505Z" fill="#009CD6"/>
<path d="M31.9611 40.0739C38.7496 40.0739 44.5827 41.7905 47.076 44.2294C47.9267 42.4545 48.3699 40.512 48.3731 38.5438C48.3731 30.4814 41.0176 23.5764 31.9611 23.5764C22.9045 23.5764 15.5801 30.4814 15.5801 38.5438C15.5815 40.513 16.0275 42.4566 16.885 44.2294C19.3394 41.7905 25.1648 40.0739 31.9611 40.0739Z" fill="#009ED7"/>
<path d="M31.9611 40.0893C38.7263 40.0893 44.5439 41.7903 47.0294 44.2059C47.8833 42.4515 48.3269 40.5258 48.3265 38.5747C48.3265 30.5823 40.9943 23.7161 31.9611 23.7161C22.9278 23.7161 15.5801 30.5823 15.5801 38.5747C15.5778 40.5261 16.0215 42.4522 16.8772 44.2059C19.3705 41.7903 25.1803 40.0893 31.9611 40.0893Z" fill="#00A0D8"/>
<path d="M31.9533 40.1049C38.703 40.1049 44.5129 41.7903 46.9906 44.1904C47.8383 42.4507 48.2792 40.541 48.28 38.6058C48.28 30.691 40.971 23.8481 31.9689 23.8481C22.9667 23.8481 15.6578 30.6755 15.6578 38.6058C15.6577 40.5411 16.0987 42.451 16.9471 44.1904C19.4016 41.7903 25.1959 40.1049 31.9533 40.1049Z" fill="#00A1D9"/>
<path d="M31.9533 40.1281C38.6875 40.1281 44.4741 41.798 46.944 44.167C47.7914 42.4466 48.2325 40.5546 48.2334 38.6368C48.2334 30.7997 40.94 24.0034 31.9223 24.0034C22.9046 24.0034 15.6112 30.7997 15.6112 38.6368C15.6148 40.5543 16.0558 42.4457 16.9006 44.167C19.4637 41.798 25.2192 40.1281 31.9533 40.1281Z" fill="#00A3DA"/>
<path d="M31.9533 40.1437C38.6642 40.1437 44.4352 41.7982 46.9052 44.1438C47.7439 42.4535 48.1849 40.5938 48.1945 38.7068C48.1945 30.9396 40.9167 24.1899 31.9533 24.1899C22.99 24.1899 15.7199 30.9396 15.7199 38.7068C15.7268 40.5932 16.1652 42.453 17.0015 44.1438C19.4637 41.7982 25.2347 40.1437 31.9533 40.1437Z" fill="#00A5DB"/>
<path d="M31.9534 40.1593C38.6409 40.1593 44.3809 41.7982 46.8586 44.1284C47.7058 42.4411 48.1473 40.5793 48.1479 38.6913C48.1479 31.0018 40.8934 24.2832 31.9534 24.2832C23.0133 24.2832 15.7588 31.0018 15.7588 38.6913C15.7587 40.5785 16.1974 42.4399 17.0404 44.1284C19.4637 41.7982 25.2503 40.1593 31.9534 40.1593Z" fill="#00A7DC"/>
<path d="M31.9456 40.1826C38.6253 40.1826 44.3731 41.7981 46.8197 44.105C47.6594 42.4403 48.0982 40.6023 48.1013 38.7379C48.1013 31.1183 40.8623 24.4385 31.9456 24.4385C23.0288 24.4385 15.8054 31.1183 15.8054 38.7379C15.8057 40.6018 16.2419 42.4397 17.0792 44.105C19.5258 41.7981 25.2658 40.1826 31.9456 40.1826Z" fill="#00A9DD"/>
<path d="M31.9456 40.1982C38.602 40.1982 44.3342 41.806 46.7731 44.0818C47.6127 42.4365 48.0518 40.6162 48.0547 38.769C48.0547 31.2193 40.839 24.5784 31.9456 24.5784C23.0521 24.5784 15.8442 31.2193 15.8442 38.769C15.8473 40.6152 16.2836 42.4349 17.118 44.0818C19.5569 41.806 25.2813 40.1982 31.9456 40.1982Z" fill="#00ABDE"/>
<path d="M31.9456 40.2135C38.5865 40.2135 44.2954 41.8058 46.7033 44.0971C47.5358 42.4662 47.9722 40.6621 47.9771 38.831C47.9771 31.3589 40.7846 24.7568 31.9145 24.7568C23.0444 24.7568 15.852 31.3589 15.852 38.831C15.8641 40.6522 16.3031 42.4452 17.1336 44.0661C19.5958 41.8058 25.2969 40.2135 31.9456 40.2135Z" fill="#00ADDE"/>
<path d="M31.9378 40.2291C38.5632 40.2291 44.2565 41.7826 46.6954 44.0428C47.5311 42.4326 47.968 40.6452 47.9693 38.831C47.9693 31.4367 40.7924 24.8501 31.9456 24.8501C23.0987 24.8501 15.9374 31.4211 15.9374 38.831C15.939 40.6442 16.373 42.4309 17.2034 44.0428C19.6268 41.8059 25.3124 40.2291 31.9378 40.2291Z" fill="#00AFDF"/>
<path d="M31.9378 40.2524C38.5399 40.2524 44.2255 41.8058 46.6488 44.0194C47.4782 42.4267 47.9124 40.6578 47.9149 38.862C47.9149 31.5376 40.7613 25.0054 31.9378 25.0054C23.1143 25.0054 15.9684 31.5376 15.9684 38.862C15.97 40.6579 16.4043 42.427 17.2345 44.0194C19.6579 41.8058 25.3279 40.2524 31.9378 40.2524Z" fill="#00B1E0"/>
<path d="M31.9378 40.268C38.5244 40.268 44.1867 41.8215 46.6023 44.004C47.4313 42.4278 47.8657 40.6741 47.8683 38.8932C47.8683 31.6464 40.7381 25.1531 31.9378 25.1531C23.1376 25.1531 16.0073 31.6464 16.0073 38.8932C16.009 40.6742 16.4435 42.4282 17.2734 44.004C19.689 41.8137 25.3435 40.268 31.9378 40.268Z" fill="#00B3E1"/>
<path d="M31.9378 40.2834C38.5011 40.2834 44.1556 41.8368 46.5634 43.9806C47.3864 42.422 47.8183 40.6867 47.8217 38.9241C47.8217 31.7473 40.707 25.2927 31.9378 25.2927C23.1686 25.2927 16.0539 31.755 16.0539 38.9241C16.0573 40.6867 16.4892 42.422 17.3122 43.9806C19.72 41.8135 25.359 40.2834 31.9378 40.2834Z" fill="#0DB5E2"/>
<path d="M31.9301 40.3068C38.4778 40.3068 44.1168 41.8137 46.5168 43.9574C47.3392 42.4181 47.7713 40.7005 47.7751 38.9553C47.7751 31.8561 40.6837 25.4404 31.9301 25.4404C23.1764 25.4404 16.0928 31.8561 16.0928 38.9553C16.0966 40.7005 16.5287 42.4181 17.3511 43.9574C19.7511 41.8137 25.3745 40.3068 31.9301 40.3068Z" fill="#19B7E3"/>
<path d="M31.93 40.3224C38.4622 40.3224 44.0779 41.8137 46.478 43.9419C47.2983 42.4214 47.7305 40.7219 47.7363 38.9943C47.7363 32.0038 40.6604 25.5803 31.93 25.5803C23.1997 25.5803 16.1316 31.965 16.1316 38.9943C16.1364 40.722 16.5686 42.4218 17.3899 43.9419C19.7822 41.8137 25.3901 40.3224 31.93 40.3224Z" fill="#21B9E4"/>
<path d="M31.93 40.3379C38.4389 40.3379 44.0468 41.8214 46.4391 43.9185C47.2529 42.4154 47.6825 40.7344 47.6896 39.0252C47.6896 32.0347 40.6293 25.7278 31.93 25.7278C23.2308 25.7278 16.1782 32.0658 16.1782 39.0252C16.1816 40.734 16.6086 42.4152 17.4209 43.9185C19.8132 41.8214 25.4056 40.3379 31.93 40.3379Z" fill="#28BBE5"/>
<path d="M31.93 40.3768C38.4312 40.3768 44.0313 41.8525 46.4158 43.9341C47.2304 42.4426 47.6602 40.7714 47.6664 39.0719C47.6664 32.1669 40.6215 25.8677 31.93 25.8677C23.2385 25.8677 16.2015 32.1824 16.2015 39.0719C16.2039 40.7709 16.6311 42.4423 17.4442 43.9341C19.8288 41.8525 25.4211 40.3768 31.93 40.3768Z" fill="#37BDE6"/>
<path d="M31.93 40.4233C38.4234 40.4233 44.0158 41.8836 46.3926 43.9574C47.2083 42.4747 47.6383 40.8107 47.6431 39.1184C47.6431 32.26 40.606 25.9841 31.93 25.9841C23.2541 25.9841 16.217 32.26 16.217 39.1184C16.2253 40.8093 16.6523 42.4718 17.4598 43.9574C19.8443 41.8836 25.4289 40.4233 31.93 40.4233Z" fill="#43BFE6"/>
<path d="M31.93 40.4932C38.4156 40.4932 43.9924 41.9457 46.377 44.004C47.1868 42.5333 47.6142 40.8827 47.6197 39.2039C47.6197 32.3843 40.6292 26.1472 31.93 26.1472C23.2307 26.1472 16.2403 32.361 16.2403 39.2039C16.2448 40.8829 16.6723 42.5337 17.483 44.004C19.8598 41.9146 25.4366 40.4932 31.93 40.4932Z" fill="#4DC0E7"/>
<path d="M31.93 40.4933C38.4078 40.4933 43.9769 41.938 46.3537 43.9807C47.1668 42.5223 47.5971 40.8815 47.6042 39.2117C47.6042 32.4387 40.6137 26.2405 31.93 26.2405C23.2463 26.2405 16.2636 32.4542 16.2636 39.2117C16.2693 40.8797 16.694 42.5196 17.4986 43.9807C19.8753 41.9457 25.4444 40.4933 31.93 40.4933Z" fill="#56C2E8"/>
<path d="M31.93 40.5477C38.4001 40.5477 43.9614 41.9769 46.3382 44.0041C47.1442 42.5572 47.5717 40.9301 47.5809 39.2739C47.5809 32.5475 40.5904 26.3804 31.93 26.3804C23.2696 26.3804 16.2869 32.5475 16.2869 39.2739C16.2891 40.9301 16.7142 42.5583 17.5219 44.0041C19.8909 41.9769 25.4522 40.5477 31.93 40.5477Z" fill="#5EC4E8"/>
<path d="M31.93 40.5863C38.3845 40.5863 43.9459 42.0077 46.3148 44.0272C47.124 42.59 47.5519 40.9696 47.5576 39.3203C47.5576 32.6405 40.5671 26.5122 31.93 26.5122C23.2929 26.5122 16.3024 32.6405 16.3024 39.3203C16.3092 40.9685 16.7341 42.588 17.5374 44.0272C19.9142 42.0466 25.4599 40.5863 31.93 40.5863Z" fill="#65C6E9"/>
<path d="M31.93 40.6253C38.3768 40.6253 43.9303 42.0389 46.2993 44.0429C47.0997 42.6194 47.5247 41.0156 47.5343 39.3826C47.5343 32.7494 40.5438 26.6599 31.93 26.6599C23.3162 26.6599 16.3568 32.7261 16.3568 39.367C16.3654 41.0002 16.7904 42.6042 17.5918 44.0273C19.9297 42.0467 25.4755 40.6253 31.93 40.6253Z" fill="#6DC7EA"/>
<path d="M31.93 40.6642C38.369 40.6642 43.9148 42.0701 46.276 44.0585C47.0826 42.6375 47.508 41.0321 47.511 39.3981C47.511 32.8038 40.5205 26.7532 31.93 26.7532C23.3395 26.7532 16.3568 32.8271 16.3568 39.4214C16.3571 41.0547 16.7798 42.6602 17.584 44.0818C19.9452 42.0468 25.4832 40.6642 31.93 40.6642Z" fill="#74C9EA"/>
<path d="M31.9301 40.7107C38.3613 40.7107 43.8993 42.1011 46.2605 44.0817C47.0587 42.6742 47.4838 41.086 47.4955 39.468C47.4955 32.9202 40.505 26.9084 31.9611 26.9084C23.4172 26.9084 16.4268 32.928 16.4268 39.468C16.4312 41.086 16.854 42.6753 17.654 44.0817C19.9608 42.1011 25.4911 40.7107 31.9301 40.7107Z" fill="#7ACBEB"/>
<path d="M31.93 40.7496C38.3535 40.7496 43.8837 42.1322 46.2372 44.0973C47.0384 42.7051 47.464 41.1286 47.4722 39.5224C47.4722 33.0213 40.4817 27.0405 31.9378 27.0405C23.3939 27.0405 16.4034 33.0213 16.4034 39.5224C16.4117 41.1276 16.8345 42.7034 17.6307 44.0973C19.9764 42.1322 25.4988 40.7496 31.93 40.7496Z" fill="#81CDEC"/>
<path d="M31.93 40.7883C38.3457 40.7883 43.8682 42.1631 46.2217 44.1127C47.017 42.7297 47.4398 41.1641 47.4489 39.5689C47.4489 33.1143 40.4972 27.1414 31.9145 27.1414C23.3318 27.1414 16.3801 33.091 16.3801 39.5689C16.3845 41.1648 16.8077 42.7315 17.6073 44.1127C19.9919 42.1631 25.5066 40.7883 31.93 40.7883Z" fill="#87CFEC"/>
<path d="M31.93 40.8351C38.338 40.8351 43.8449 42.1943 46.1984 44.1284C46.9941 42.7569 47.4172 41.2012 47.4256 39.6156C47.4256 33.2077 40.4817 27.2969 31.93 27.2969C23.3784 27.2969 16.4345 33.2077 16.4345 39.6156C16.4402 41.2005 16.8606 42.7563 17.654 44.1284C20.0074 42.1943 25.5143 40.8351 31.93 40.8351Z" fill="#8ED1ED"/>
<path d="M31.93 40.8737C38.3302 40.8737 43.8294 42.2252 46.1828 44.1515C46.9764 42.7904 47.3995 41.2452 47.4101 39.6698C47.4101 33.3007 40.4739 27.4287 31.93 27.4287C23.3861 27.4287 16.4578 33.3085 16.4578 39.6698C16.4646 41.2447 16.8851 42.7903 17.6773 44.1515C20.023 42.2252 25.5299 40.8737 31.93 40.8737Z" fill="#94D3EE"/>
<path d="M31.9301 40.9126C38.3224 40.9126 43.8139 42.2563 46.1595 44.167C46.9675 42.8215 47.4044 41.2858 47.4256 39.7164C47.4256 33.3939 40.4973 27.5608 31.9689 27.5608C23.4405 27.5608 16.5122 33.4017 16.5122 39.7164C16.5189 41.2816 16.9396 42.8171 17.7316 44.167C20.0385 42.2563 25.5377 40.9126 31.9301 40.9126Z" fill="#9AD5EF"/>
<path d="M31.93 40.9514C38.3147 40.9514 43.7983 42.2874 46.1362 44.1826C46.9292 42.8468 47.3527 41.3242 47.3635 39.7708C47.3635 33.495 40.4506 27.6929 31.93 27.6929C23.4094 27.6929 16.4966 33.495 16.4966 39.7708C16.5035 41.3237 16.9245 42.8466 17.7161 44.1826C20.054 42.2874 25.5454 40.9514 31.93 40.9514Z" fill="#A0D7F0"/>
<path d="M31.9301 40.9981C38.3069 40.9981 43.7828 42.3185 46.1207 44.1982C46.9084 42.8719 47.3293 41.36 47.3402 39.8175C47.3402 33.6037 40.4351 27.825 31.9301 27.825C23.425 27.825 16.52 33.5882 16.52 39.8175C16.5244 41.3599 16.9428 42.8728 17.7316 44.1982C20.0696 42.3185 25.5532 40.9981 31.9301 40.9981Z" fill="#A6D9F0"/>
<path d="M31.93 41.037C38.2991 41.037 43.7672 42.3496 46.0974 44.2215C46.8908 42.9058 47.3147 41.4005 47.3246 39.8641C47.3246 33.6504 40.4273 27.957 31.93 27.957C23.4327 27.957 16.5432 33.6892 16.5432 39.8641C16.5484 41.3991 16.9669 42.9043 17.7549 44.2215C20.085 42.3496 25.5609 41.037 31.93 41.037Z" fill="#ACDCF1"/>
<path d="M31.93 41.0758C38.2836 41.0758 43.7517 42.3807 46.0818 44.2371C46.8679 42.9329 47.2891 41.4413 47.3013 39.9185C47.3013 33.7747 40.4118 28.0891 31.93 28.0891C23.4483 28.0891 16.5665 33.7825 16.5665 39.9185C16.5732 41.44 16.9891 42.9316 17.7705 44.2371C20.1084 42.3807 25.5687 41.0758 31.93 41.0758Z" fill="#B2DEF2"/>
<path d="M31.93 41.1145C38.2758 41.1145 43.7362 42.4117 46.0585 44.2214C46.8446 42.9285 47.266 41.447 47.278 39.9339C47.278 33.8444 40.3963 28.1899 31.93 28.1899C23.4638 28.1899 16.5821 33.8444 16.5821 39.9339C16.5867 41.447 17.0057 42.9298 17.7938 44.2214C20.1239 42.4117 25.5842 41.1145 31.93 41.1145Z" fill="#B8E0F3"/>
<path d="M31.93 41.1612C38.2681 41.1612 43.7206 42.4427 46.043 44.268C46.8242 42.9848 47.2429 41.5139 47.2547 40.0116C47.2547 33.961 40.3885 28.3608 31.93 28.3608C23.4716 28.3608 16.6054 33.9765 16.6054 40.0116C16.6121 41.5146 17.0312 42.9869 17.8171 44.268C20.1395 42.4427 25.592 41.1612 31.93 41.1612Z" fill="#BDE2F4"/>
<path d="M31.93 41.2C38.2603 41.2 43.7051 42.4739 46.0197 44.3069C46.8016 43.0354 47.2206 41.5742 47.2314 40.0816C47.2314 34.0775 40.3729 28.4929 31.93 28.4929C23.4871 28.4929 16.6287 34.0853 16.6287 40.0816C16.6355 41.5737 17.0519 43.0353 17.8326 44.3069C20.155 42.4739 25.5997 41.2 31.93 41.2Z" fill="#C3E5F5"/>
<path d="M31.93 41.2701C38.2525 41.2701 43.6818 42.5361 46.0042 44.3381C46.7825 43.0764 47.2014 41.6262 47.2159 40.1438C47.2159 34.1864 40.3652 28.6406 31.93 28.6406C23.4949 28.6406 16.652 34.1942 16.652 40.1438C16.6562 41.6255 17.0702 43.0771 17.8481 44.3381C20.1705 42.505 25.6075 41.2701 31.93 41.2701Z" fill="#C9E7F5"/>
<path d="M31.93 41.2698C38.2447 41.2698 43.6662 42.5203 45.9809 44.3068C46.7585 43.0591 47.1777 41.6215 47.1925 40.1514C47.1925 34.2328 40.3496 28.7258 31.93 28.7258C23.5104 28.7258 16.6675 34.2794 16.6675 40.1669C16.6747 41.637 17.0916 43.076 17.8714 44.3223C20.186 42.5359 25.6153 41.2698 31.93 41.2698Z" fill="#CEE9F6"/>
<path d="M31.93 41.3243C38.237 41.3243 43.6507 42.5671 45.9653 44.3458C46.7395 43.1055 47.1561 41.6756 47.1692 40.2136C47.1692 34.3494 40.3419 28.8735 31.93 28.8735C23.5181 28.8735 16.6908 34.3494 16.6908 40.2136C16.6974 41.6885 17.1201 43.1315 17.9102 44.3768C20.2404 42.5671 25.6231 41.3243 31.93 41.3243Z" fill="#D4ECF7"/>
<path d="M31.93 41.3632C38.2292 41.3632 43.6352 42.5982 45.9109 44.3613C46.6865 43.136 47.1035 41.7181 47.1149 40.268C47.1149 34.4426 40.2953 29.0056 31.899 29.0056C23.5026 29.0056 16.683 34.4426 16.683 40.268C16.6951 41.7262 17.1206 43.151 17.9102 44.3769C20.2404 42.5982 25.6774 41.3632 31.93 41.3632Z" fill="#DAEEF8"/>
<path d="M31.93 41.4021C38.2215 41.4021 43.6197 42.6293 45.911 44.3769C46.6867 43.1628 47.1065 41.7554 47.1227 40.3147C47.1227 34.5359 40.3031 29.1377 31.9223 29.1377C23.5415 29.1377 16.7297 34.5747 16.7297 40.3147C16.7353 41.7526 17.1443 43.16 17.9103 44.3769C20.2404 42.6293 25.6775 41.4021 31.93 41.4021Z" fill="#DFF1F9"/>
<path d="M31.9301 41.4485C38.2137 41.4485 43.5808 42.6602 45.911 44.3922C46.685 43.1892 47.1024 41.7915 47.1149 40.3611C47.1149 34.6289 40.3109 29.2695 31.9378 29.2695C23.5648 29.2695 16.7607 34.6367 16.7607 40.3611C16.7667 41.7914 17.1817 43.1902 17.9569 44.3922C20.2404 42.6602 25.6775 41.4485 31.9301 41.4485Z" fill="#E5F3FA"/>
<path d="M31.93 41.4873C38.2059 41.4873 43.5808 42.6913 45.911 44.4156C46.6824 43.2229 47.0999 41.8359 47.1149 40.4155C47.1149 34.7299 40.3186 29.4016 31.9611 29.4016C23.6036 29.4016 16.8073 34.7299 16.8073 40.4155C16.8168 41.8345 17.2289 43.2216 17.9957 44.4156C20.2404 42.6913 25.6774 41.4873 31.93 41.4873Z" fill="#EBF6FB"/>
<path d="M31.93 41.5262C38.1981 41.5262 43.5808 42.7224 45.8644 44.4312C46.6306 43.248 47.0454 41.8717 47.0605 40.4621C47.0605 34.8231 40.2797 29.5337 31.93 29.5337C23.5803 29.5337 16.7996 34.8231 16.7996 40.4932C16.8081 41.9026 17.2205 43.28 17.9879 44.4622C20.2793 42.7224 25.6774 41.5262 31.93 41.5262Z" fill="#F1F8FD"/>
<path d="M31.93 41.5651C38.1904 41.5651 43.5808 42.7534 45.8411 44.4467C46.6136 43.2722 47.0291 41.899 47.0372 40.4932C47.0372 34.8931 40.2642 29.6191 31.93 29.6191C23.5958 29.6191 16.8229 34.8775 16.8229 40.4932C16.83 41.8896 17.2399 43.2543 18.0035 44.4234C20.3026 42.7535 25.6775 41.5651 31.93 41.5651Z" fill="#F7FBFE"/>
<path d="M31.93 41.6116C38.1438 41.6116 43.5342 42.7845 45.8255 44.47C46.5857 43.3156 47.0006 41.9683 47.0217 40.5864C47.0217 35.0328 40.2564 29.821 31.93 29.821C23.6036 29.821 16.8384 35.0406 16.8384 40.5864C16.8528 41.9682 17.2654 43.3167 18.0268 44.47C20.3181 42.8233 25.6774 41.6116 31.93 41.6116Z" fill="white"/>
<path d="M31.9301 36.066C26.9029 36.0197 21.9071 36.8611 17.1724 38.5515C18.4404 41.3992 20.5066 43.8183 23.1209 45.5161C25.7353 47.2138 28.7857 48.1173 31.9029 48.1173C35.0201 48.1173 38.0705 47.2138 40.6849 45.5161C43.2992 43.8183 45.3654 41.3992 46.6334 38.5515C41.9165 36.8652 36.9392 36.0238 31.9301 36.066V36.066Z" fill="#0083CA"/>
</g>
</g>
<defs>
<clipPath id="clip0_238_554">
<rect width="34.2222" height="33.8572" fill="white" transform="translate(14.8889 15.0713)"/>
</clipPath>
</defs>
</svg>
