<svg width="192" height="192" viewBox="0 0 192 192" fill="none" xmlns="http://www.w3.org/2000/svg">
<circle cx="96" cy="96" r="80" fill="#FFE400"/>
<path d="M156 141.185C155.999 143.482 155.555 145.755 154.693 147.877C153.831 149.998 152.569 151.925 150.977 153.548C149.386 155.171 147.497 156.458 145.418 157.336C143.339 158.214 141.111 158.665 138.862 158.664H53.1408C48.5975 158.665 44.2395 156.825 41.0251 153.548C37.8107 150.27 36.0032 145.823 36 141.185V53.8075C36.0038 49.1702 37.8117 44.7243 41.0261 41.4475C44.2405 38.1708 48.5981 36.3314 53.1408 36.334H138.862C141.111 36.3324 143.338 36.7831 145.417 37.6604C147.496 38.5377 149.385 39.8244 150.976 41.447C152.568 43.0696 153.83 44.9963 154.692 47.1172C155.554 49.238 155.999 51.5114 156 53.8075V141.185Z" fill="#FFE400"/>
<path d="M121.737 109.736C121.199 105.472 119.111 101.57 115.887 98.8044C115.41 98.3757 114.892 97.9762 114.319 97.5013C114.797 97.1359 115.193 96.8558 115.563 96.5416C117.883 94.5807 119.676 92.0482 120.771 89.1834C121.808 86.4745 122.137 83.5366 121.726 80.6586C121.269 77.1577 119.754 73.8897 117.39 71.3104C115.706 69.3958 113.625 67.8881 111.299 66.897C109.039 65.9632 106.621 65.4954 104.184 65.5208H76.8693C76.6809 65.5098 76.4921 65.5098 76.3038 65.5208C76.0042 65.5347 75.722 65.6681 75.5176 65.8921C75.3133 66.1162 75.2032 66.4131 75.211 66.7192C75.211 66.914 75.211 67.1064 75.211 67.2989V127.545C75.211 127.847 75.1943 128.152 75.211 128.454C75.2233 128.703 75.3206 128.941 75.4861 129.125C75.6517 129.309 75.8751 129.428 76.1177 129.462C76.3053 129.485 76.4944 129.493 76.6832 129.484H104.971C107.82 129.496 110.62 128.731 113.084 127.27C116.603 125.251 119.319 122.039 120.762 118.19C121.803 115.507 122.139 112.592 121.737 109.736V109.736ZM99.9989 111.903H94.8953V83.1624H99.9416C99.9416 83.1624 99.9225 83.1478 99.9416 83.1478V83.1624H99.9989V111.903Z" fill="#1E1719"/>
</svg>
