<svg width="64" height="64" viewBox="0 0 64 64" fill="none" xmlns="http://www.w3.org/2000/svg">
<circle cx="32" cy="32" r="26.6667" fill="#FFE400"/>
<path d="M42.6817 37.2536C42.4426 35.3972 41.5145 33.6985 40.0815 32.4944C39.8694 32.3077 39.6393 32.1338 39.3848 31.9271C39.5969 31.768 39.7729 31.646 39.9373 31.5092C40.9687 30.6555 41.7654 29.5529 42.2522 28.3057C42.7133 27.1263 42.8595 25.8472 42.6764 24.5942C42.4736 23.07 41.8 21.6472 40.7496 20.5242C40.0011 19.6906 39.0762 19.0343 38.0423 18.6027C37.0382 18.1962 35.9634 17.9925 34.8801 18.0036H22.7403C22.6566 17.9988 22.5727 17.9988 22.489 18.0036C22.3558 18.0096 22.2304 18.0677 22.1396 18.1653C22.0488 18.2628 21.9998 18.3921 22.0033 18.5253C22.0033 18.6102 22.0033 18.6939 22.0033 18.7777V45.0075C22.0033 45.139 21.9959 45.2715 22.0033 45.403C22.0087 45.5117 22.052 45.6151 22.1256 45.6952C22.1991 45.7754 22.2984 45.8273 22.4063 45.842C22.4896 45.8521 22.5737 45.8553 22.6576 45.8516H35.2301C36.4962 45.8565 37.7408 45.5238 38.8355 44.8876C40.3997 44.0087 41.6069 42.6101 42.248 40.9344C42.7108 39.7662 42.8603 38.4973 42.6817 37.2536V37.2536ZM33.0201 38.1974H30.7519V25.6843H32.9947C32.9947 25.6843 32.9862 25.6779 32.9947 25.6779V25.6843H33.0201V38.1974Z" fill="#1E1719"/>
</svg>
