<svg width="192" height="192" viewBox="0 0 192 192" fill="none" xmlns="http://www.w3.org/2000/svg">
<circle cx="96" cy="96" r="80" fill="#FFE400"/>
<path d="M128.045 111.761C127.328 106.192 124.544 101.095 120.245 97.4831C119.608 96.9232 118.918 96.4015 118.154 95.7812C118.791 95.304 119.319 94.9381 119.812 94.5277C122.906 91.9665 125.296 88.6588 126.757 84.917C128.14 81.3788 128.578 77.5416 128.029 73.7825C127.421 69.21 125.4 64.9415 122.249 61.5727C120.003 59.0719 117.229 57.1028 114.127 55.8082C111.114 54.5885 107.89 53.9776 104.64 54.0108H68.2209C67.9698 53.9964 67.718 53.9964 67.4669 54.0108C67.0675 54.0289 66.6911 54.2031 66.4187 54.4958C66.1463 54.7884 65.9995 55.1763 66.0099 55.576C66.0099 55.8305 66.0099 56.0818 66.0099 56.3331V135.022C66.0099 135.417 65.9876 135.815 66.0099 136.209C66.0262 136.535 66.1559 136.845 66.3767 137.086C66.5974 137.326 66.8953 137.482 67.2188 137.526C67.4689 137.556 67.7211 137.566 67.9728 137.555H105.69C109.489 137.57 113.222 136.571 116.507 134.663C121.199 132.026 124.821 127.83 126.744 122.803C128.132 119.299 128.581 115.492 128.045 111.761V111.761ZM99.0603 114.592H92.2556V77.0529H98.984C98.984 77.0529 98.9586 77.0338 98.984 77.0338V77.0529H99.0603V114.592Z" fill="#1E1719"/>
</svg>
