<svg width="64" height="64" viewBox="0 0 64 64" fill="none" xmlns="http://www.w3.org/2000/svg">
<circle cx="32" cy="32" r="26.6667" fill="#FFE400"/>
<path d="M52 47.0617C51.9997 47.8272 51.8517 48.5851 51.5644 49.2922C51.2771 49.9993 50.8562 50.6417 50.3257 51.1827C49.7952 51.7237 49.1655 52.1528 48.4726 52.4453C47.7797 52.7379 47.0371 52.8883 46.2872 52.8878H17.7136C16.1992 52.8885 14.7465 52.2751 13.675 51.1825C12.6036 50.0899 12.0011 48.6077 12 47.0617V17.9359C12.0013 16.3901 12.6039 14.9081 13.6754 13.8158C14.7468 12.7236 16.1994 12.1105 17.7136 12.1113H46.2872C47.037 12.1108 47.7795 12.261 48.4724 12.5535C49.1652 12.8459 49.7949 13.2748 50.3254 13.8157C50.8559 14.3565 51.2768 14.9988 51.5641 15.7057C51.8515 16.4127 51.9996 17.1705 52 17.9359V47.0617Z" fill="#FFE400"/>
<path d="M40.5792 36.5786C40.3998 35.1573 39.7038 33.8567 38.629 32.9348C38.47 32.7919 38.2974 32.6587 38.1065 32.5004C38.2656 32.3786 38.3976 32.2853 38.5209 32.1805C39.2944 31.5269 39.892 30.6827 40.257 29.7278C40.6028 28.8248 40.7125 27.8455 40.5752 26.8862C40.423 25.7192 39.9178 24.6299 39.1301 23.7701C38.5687 23.1319 37.875 22.6294 37.0996 22.299C36.3465 21.9877 35.5404 21.8318 34.728 21.8403H25.6231C25.5603 21.8366 25.4974 21.8366 25.4346 21.8403C25.3347 21.8449 25.2407 21.8894 25.1725 21.964C25.1044 22.0387 25.0677 22.1377 25.0703 22.2397C25.0703 22.3047 25.0703 22.3688 25.0703 22.433V42.5151C25.0703 42.6158 25.0648 42.7173 25.0703 42.818C25.0744 42.9012 25.1069 42.9803 25.162 43.0417C25.2172 43.1031 25.2917 43.1428 25.3726 43.1541C25.4351 43.1618 25.4981 43.1643 25.5611 43.1614H34.9904C35.94 43.1652 36.8735 42.9104 37.6945 42.4234C38.8676 41.7504 39.7731 40.6796 40.2539 39.3966C40.601 38.5023 40.7131 37.5308 40.5792 36.5786V36.5786ZM33.333 37.3011H31.6318V27.7208H33.3139C33.3139 27.7208 33.3075 27.7159 33.3139 27.7159V27.7208H33.333V37.3011Z" fill="#1E1719"/>
</svg>
