<svg width="128" height="128" viewBox="0 0 128 128" fill="none" xmlns="http://www.w3.org/2000/svg">
<circle cx="64" cy="64" r="53.3333" fill="#FFE400"/>
<path d="M84.3634 74.5072C83.8852 70.7944 82.0291 67.397 79.1631 64.9888C78.7389 64.6155 78.2787 64.2677 77.7697 63.8541C78.1938 63.536 78.5459 63.2921 78.8746 63.0185C80.9374 61.311 82.5309 59.1059 83.5045 56.6114C84.4266 54.2525 84.7189 51.6944 84.3528 49.1883C83.9471 46.14 82.5999 43.2943 80.4992 41.0485C79.0021 39.3813 77.1525 38.0685 75.0846 37.2055C73.0763 36.3924 70.9268 35.9851 68.7602 36.0072H44.4806C44.3132 35.9976 44.1454 35.9976 43.9779 36.0072C43.7117 36.0193 43.4608 36.1354 43.2791 36.3305C43.0975 36.5256 42.9997 36.7842 43.0066 37.0506C43.0066 37.2203 43.0066 37.3879 43.0066 37.5554V90.0149C43.0066 90.2779 42.9918 90.543 43.0066 90.806C43.0175 91.0234 43.104 91.2301 43.2511 91.3905C43.3983 91.5508 43.5969 91.6546 43.8125 91.6841C43.9793 91.7043 44.1474 91.7106 44.3152 91.7032H69.4601C71.9924 91.713 74.4816 91.0476 76.6711 89.7753C79.7994 88.0174 82.2139 85.2202 83.496 81.8687C84.4216 79.5324 84.7206 76.9947 84.3634 74.5072V74.5072ZM65.0402 76.3948H60.5037V51.3686H64.9893C64.9893 51.3686 64.9724 51.3558 64.9893 51.3558V51.3686H65.0402V76.3948Z" fill="#1E1719"/>
</svg>
