<svg width="128" height="128" viewBox="0 0 128 128" fill="none" xmlns="http://www.w3.org/2000/svg">
<circle cx="64" cy="64" r="53.3333" fill="#FFE400"/>
<path d="M104 94.1234C103.999 95.6544 103.703 97.1702 103.129 98.5844C102.554 99.9986 101.712 101.283 100.651 102.365C99.5904 103.447 98.3311 104.306 96.9452 104.891C95.5593 105.476 94.0741 105.777 92.5744 105.776H35.4272C32.3983 105.777 29.493 104.55 27.3501 102.365C25.2071 100.18 24.0021 97.2154 24 94.1234V35.8717C24.0025 32.7802 25.2078 29.8162 27.3507 27.6317C29.4936 25.4472 32.3988 24.2209 35.4272 24.2227H92.5744C94.0739 24.2216 95.5589 24.5221 96.9447 25.1069C98.3305 25.6918 99.5898 26.5496 100.651 27.6313C101.712 28.7131 102.554 29.9975 103.128 31.4114C103.703 32.8253 103.999 34.3409 104 35.8717V94.1234Z" fill="#FFE400"/>
<path d="M81.1583 73.1571C80.7997 70.3145 79.4075 67.7134 77.258 65.8696C76.9399 65.5838 76.5947 65.3175 76.213 65.0008C76.5311 64.7573 76.7952 64.5705 77.0417 64.3611C78.5888 63.0538 79.7839 61.3655 80.5141 59.4556C81.2057 57.6497 81.4249 55.691 81.1503 53.7724C80.8461 51.4385 79.8357 49.2598 78.2601 47.5403C77.1373 46.2639 75.7501 45.2588 74.1992 44.598C72.693 43.9754 71.0809 43.6636 69.4559 43.6805H51.2462C51.1206 43.6732 50.9948 43.6732 50.8692 43.6805C50.6695 43.6898 50.4813 43.7787 50.3451 43.9281C50.2089 44.0775 50.1355 44.2754 50.1407 44.4794C50.1407 44.6093 50.1407 44.7376 50.1407 44.8659V85.0302C50.1407 85.2316 50.1296 85.4346 50.1407 85.6359C50.1488 85.8023 50.2137 85.9606 50.3241 86.0834C50.4345 86.2061 50.5834 86.2856 50.7451 86.3082C50.8702 86.3236 50.9963 86.3285 51.1221 86.3228H69.9808C71.8801 86.3304 73.7469 85.8208 75.389 84.8467C77.7353 83.5009 79.5461 81.3593 80.5077 78.7933C81.2019 77.0045 81.4262 75.0616 81.1583 73.1571V73.1571ZM66.6659 74.6023H63.2635V55.4416H66.6277C66.6277 55.4416 66.615 55.4319 66.6277 55.4319V55.4416H66.6659V74.6023Z" fill="#1E1719"/>
</svg>
